<svg xmlns="http://www.w3.org/2000/svg" version="1.1" xmlns:xlink="http://www.w3.org/1999/xlink" xmlns:svgjs="http://svgjs.dev/svgjs" width="1440" height="560" preserveAspectRatio="none" viewBox="0 0 1440 560"><g mask="url(&quot;#SvgjsMask1000&quot;)" fill="none"><rect width="1440" height="560" x="0" y="0" fill="#1e3266"></rect><path d="M1464 560L0 560 L0 370.47Q29.65 280.12, 120 309.77Q189.55 259.32, 240 328.87Q281.22 250.09, 360 291.31Q444.06 255.38, 480 339.44Q526.26 313.7, 552 359.96Q586.96 274.92, 672 309.89Q701.43 267.32, 744 296.75Q799.1 279.85, 816 334.95Q869.77 316.72, 888 370.49Q915.4 325.89, 960 353.29Q983.27 304.56, 1032 327.84Q1099.48 275.32, 1152 342.8Q1224.2 295, 1272 367.21Q1280.86 304.07, 1344 312.93Q1415.56 264.49, 1464 336.04z" fill="#182f5d"></path><path d="M1512 560L0 560 L0 359.63Q101.43 341.06, 120 442.48Q171.83 374.31, 240 426.15Q270.7 384.85, 312 415.55Q335.75 367.3, 384 391.04Q425.79 312.83, 504 354.62Q545.7 324.32, 576 366.02Q667.28 337.3, 696 428.58Q721.23 381.8, 768 407.03Q818 337.03, 888 387.04Q909.97 337, 960 358.97Q1043.6 322.57, 1080 406.16Q1132.99 339.15, 1200 392.14Q1253.38 325.51, 1320 378.89Q1414.26 353.15, 1440 447.41Q1454.64 390.06, 1512 404.7z" fill="#25467d"></path><path d="M1464 560L0 560 L0 429.17Q32.93 390.1, 72 423.02Q150.73 381.75, 192 460.47Q245.65 442.13, 264 495.78Q331.28 443.06, 384 510.34Q428.05 434.38, 504 478.43Q531.69 434.12, 576 461.81Q593.44 407.25, 648 424.68Q721.33 378.01, 768 451.35Q853.37 416.72, 888 502.08Q928.02 422.1, 1008 462.11Q1057.8 439.91, 1080 489.71Q1110.88 400.58, 1200 431.46Q1283.32 394.78, 1320 478.1Q1344.22 430.32, 1392 454.54Q1415.05 405.59, 1464 428.63z" fill="#356cb1"></path><path d="M1536 560L0 560 L0 506.43Q59.34 493.77, 72 553.12Q141.34 502.46, 192 571.81Q214.31 474.12, 312 496.42Q356.58 469, 384 513.59Q438.72 496.31, 456 551.02Q485.38 508.39, 528 537.77Q567.87 457.63, 648 497.5Q735.32 464.82, 768 552.13Q820.32 484.45, 888 536.78Q945.66 522.44, 960 580.1Q1014.44 514.54, 1080 568.97Q1105.8 522.77, 1152 548.57Q1205.77 482.35, 1272 536.12Q1333.77 525.89, 1344 587.66Q1359.34 531, 1416 546.33Q1451.93 462.26, 1536 498.2z" fill="white"></path></g><defs><mask id="SvgjsMask1000"><rect width="1440" height="560" fill="#ffffff"></rect></mask></defs></svg>