<svg xmlns="http://www.w3.org/2000/svg" version="1.1" xmlns:xlink="http://www.w3.org/1999/xlink" xmlns:svgjs="http://svgjs.dev/svgjs" width="1440" height="560" preserveAspectRatio="none" viewBox="0 0 1440 560"><g mask="url(&quot;#SvgjsMask1026&quot;)" fill="none"><rect width="1440" height="560" x="0" y="0" fill="#0e2a47"></rect><path d="M-102.61 393.52L-102.61 393.52" stroke="#132e65" stroke-width="1.5"></path><path d="M-102.61 393.52L-83.08 510.69" stroke="#132e65" stroke-width="1.5"></path><path d="M-83.08 510.69L-83.08 510.69" stroke="#132e65" stroke-width="1.5"></path><path d="M-83.08 510.69L-108.13 649.25" stroke="#132e65" stroke-width="1.5"></path><path d="M-83.08 510.69L73.09 518.29" stroke="#132e65" stroke-width="1.5"></path><path d="M-83.08 510.69L80.4 666.55" stroke="#132e65" stroke-width="1.5"></path><path d="M-83.08 510.69L108.54 384.98" stroke="#132e65" stroke-width="1.5"></path><path d="M-83.08 510.69L243.75 505.93" stroke="#132e65" stroke-width="1.5"></path><path d="M-108.13 649.25L-108.13 649.25" stroke="#132e65" stroke-width="1.5"></path><path d="M-108.13 649.25L80.4 666.55" stroke="#132e65" stroke-width="1.5"></path><path d="M-108.13 649.25L73.09 518.29" stroke="#132e65" stroke-width="1.5"></path><path d="M108.54 384.98L108.54 384.98" stroke="#132e65" stroke-width="1.5"></path><path d="M108.54 384.98L239.12 371.78" stroke="#132e65" stroke-width="1.5"></path><path d="M108.54 384.98L73.09 518.29" stroke="#132e65" stroke-width="1.5"></path><path d="M108.54 384.98L243.75 505.93" stroke="#132e65" stroke-width="1.5"></path><path d="M108.54 384.98L-102.61 393.52" stroke="#132e65" stroke-width="1.5"></path><path d="M73.09 518.29L73.09 518.29" stroke="#132e65" stroke-width="1.5"></path><path d="M73.09 518.29L80.4 666.55" stroke="#132e65" stroke-width="1.5"></path><path d="M73.09 518.29L243.75 505.93" stroke="#132e65" stroke-width="1.5"></path><path d="M80.4 666.55L80.4 666.55" stroke="#132e65" stroke-width="1.5"></path><path d="M80.4 666.55L234.15 665.59" stroke="#132e65" stroke-width="1.5"></path><path d="M239.12 371.78L239.12 371.78" stroke="#132e65" stroke-width="1.5"></path><path d="M239.12 371.78L368.69 354.66" stroke="#132e65" stroke-width="1.5"></path><path d="M239.12 371.78L243.75 505.93" stroke="#132e65" stroke-width="1.5"></path><path d="M243.75 505.93L243.75 505.93" stroke="#132e65" stroke-width="1.5"></path><path d="M243.75 505.93L234.15 665.59" stroke="#132e65" stroke-width="1.5"></path><path d="M243.75 505.93L404.46 561.74" stroke="#132e65" stroke-width="1.5"></path><path d="M234.15 665.59L234.15 665.59" stroke="#132e65" stroke-width="1.5"></path><path d="M234.15 665.59L369.36 674.47" stroke="#132e65" stroke-width="1.5"></path><path d="M368.69 354.66L368.69 354.66" stroke="#132e65" stroke-width="1.5"></path><path d="M368.69 354.66L526.75 370.19" stroke="#132e65" stroke-width="1.5"></path><path d="M404.46 561.74L404.46 561.74" stroke="#132e65" stroke-width="1.5"></path><path d="M404.46 561.74L369.36 674.47" stroke="#132e65" stroke-width="1.5"></path><path d="M404.46 561.74L511.2 510.09" stroke="#132e65" stroke-width="1.5"></path><path d="M404.46 561.74L520.25 702.16" stroke="#132e65" stroke-width="1.5"></path><path d="M404.46 561.74L234.15 665.59" stroke="#132e65" stroke-width="1.5"></path><path d="M369.36 674.47L369.36 674.47" stroke="#132e65" stroke-width="1.5"></path><path d="M369.36 674.47L520.25 702.16" stroke="#132e65" stroke-width="1.5"></path><path d="M369.36 674.47L243.75 505.93" stroke="#132e65" stroke-width="1.5"></path><path d="M369.36 674.47L511.2 510.09" stroke="#132e65" stroke-width="1.5"></path><path d="M526.75 370.19L526.75 370.19" stroke="#132e65" stroke-width="1.5"></path><path d="M526.75 370.19L511.2 510.09" stroke="#132e65" stroke-width="1.5"></path><path d="M526.75 370.19L685.33 397.66" stroke="#132e65" stroke-width="1.5"></path><path d="M526.75 370.19L667.89 512.84" stroke="#132e65" stroke-width="1.5"></path><path d="M526.75 370.19L674.21 231.66" stroke="#132e65" stroke-width="1.5"></path><path d="M511.2 510.09L511.2 510.09" stroke="#132e65" stroke-width="1.5"></path><path d="M520.25 702.16L520.25 702.16" stroke="#132e65" stroke-width="1.5"></path><path d="M520.25 702.16L651.7 650.3" stroke="#132e65" stroke-width="1.5"></path><path d="M520.25 702.16L511.2 510.09" stroke="#132e65" stroke-width="1.5"></path><path d="M674.21 231.66L674.21 231.66" stroke="#132e65" stroke-width="1.5"></path><path d="M674.21 231.66L805.03 229.89" stroke="#132e65" stroke-width="1.5"></path><path d="M674.21 231.66L685.33 397.66" stroke="#132e65" stroke-width="1.5"></path><path d="M674.21 231.66L942.33 242.85" stroke="#132e65" stroke-width="1.5"></path><path d="M674.21 231.66L667.89 512.84" stroke="#132e65" stroke-width="1.5"></path><path d="M674.21 231.66L789.44 520.73" stroke="#132e65" stroke-width="1.5"></path><path d="M685.33 397.66L685.33 397.66" stroke="#132e65" stroke-width="1.5"></path><path d="M685.33 397.66L667.89 512.84" stroke="#132e65" stroke-width="1.5"></path><path d="M685.33 397.66L789.44 520.73" stroke="#132e65" stroke-width="1.5"></path><path d="M685.33 397.66L805.03 229.89" stroke="#132e65" stroke-width="1.5"></path><path d="M667.89 512.84L667.89 512.84" stroke="#132e65" stroke-width="1.5"></path><path d="M667.89 512.84L789.44 520.73" stroke="#132e65" stroke-width="1.5"></path><path d="M667.89 512.84L651.7 650.3" stroke="#132e65" stroke-width="1.5"></path><path d="M667.89 512.84L511.2 510.09" stroke="#132e65" stroke-width="1.5"></path><path d="M651.7 650.3L651.7 650.3" stroke="#132e65" stroke-width="1.5"></path><path d="M651.7 650.3L826.01 658.88" stroke="#132e65" stroke-width="1.5"></path><path d="M805.03 229.89L805.03 229.89" stroke="#132e65" stroke-width="1.5"></path><path d="M805.03 229.89L942.33 242.85" stroke="#132e65" stroke-width="1.5"></path><path d="M805.03 229.89L977.34 378.58" stroke="#132e65" stroke-width="1.5"></path><path d="M805.03 229.89L1006.39 97.58" stroke="#132e65" stroke-width="1.5"></path><path d="M789.44 520.73L789.44 520.73" stroke="#132e65" stroke-width="1.5"></path><path d="M789.44 520.73L826.01 658.88" stroke="#132e65" stroke-width="1.5"></path><path d="M789.44 520.73L651.7 650.3" stroke="#132e65" stroke-width="1.5"></path><path d="M826.01 658.88L826.01 658.88" stroke="#132e65" stroke-width="1.5"></path><path d="M826.01 658.88L999.17 702.99" stroke="#132e65" stroke-width="1.5"></path><path d="M1011.93 -90.1L1011.93 -90.1" stroke="#132e65" stroke-width="1.5"></path><path d="M1011.93 -90.1L1149.15 -53.61" stroke="#132e65" stroke-width="1.5"></path><path d="M1011.93 -90.1L1110.84 49.94" stroke="#132e65" stroke-width="1.5"></path><path d="M1011.93 -90.1L1006.39 97.58" stroke="#132e65" stroke-width="1.5"></path><path d="M1006.39 97.58L1006.39 97.58" stroke="#132e65" stroke-width="1.5"></path><path d="M1006.39 97.58L1110.84 49.94" stroke="#132e65" stroke-width="1.5"></path><path d="M1006.39 97.58L942.33 242.85" stroke="#132e65" stroke-width="1.5"></path><path d="M1006.39 97.58L1149.15 -53.61" stroke="#132e65" stroke-width="1.5"></path><path d="M942.33 242.85L942.33 242.85" stroke="#132e65" stroke-width="1.5"></path><path d="M942.33 242.85L977.34 378.58" stroke="#132e65" stroke-width="1.5"></path><path d="M942.33 242.85L1161.28 242.54" stroke="#132e65" stroke-width="1.5"></path><path d="M977.34 378.58L977.34 378.58" stroke="#132e65" stroke-width="1.5"></path><path d="M977.34 378.58L1119.93 393.64" stroke="#132e65" stroke-width="1.5"></path><path d="M989.66 548.11L989.66 548.11" stroke="#132e65" stroke-width="1.5"></path><path d="M989.66 548.11L999.17 702.99" stroke="#132e65" stroke-width="1.5"></path><path d="M989.66 548.11L977.34 378.58" stroke="#132e65" stroke-width="1.5"></path><path d="M989.66 548.11L826.01 658.88" stroke="#132e65" stroke-width="1.5"></path><path d="M989.66 548.11L1128.88 691.67" stroke="#132e65" stroke-width="1.5"></path><path d="M999.17 702.99L999.17 702.99" stroke="#132e65" stroke-width="1.5"></path><path d="M999.17 702.99L1128.88 691.67" stroke="#132e65" stroke-width="1.5"></path><path d="M1149.15 -53.61L1149.15 -53.61" stroke="#132e65" stroke-width="1.5"></path><path d="M1149.15 -53.61L1110.84 49.94" stroke="#132e65" stroke-width="1.5"></path><path d="M1149.15 -53.61L1258.99 -66.28" stroke="#132e65" stroke-width="1.5"></path><path d="M1149.15 -53.61L1263.19 41.02" stroke="#132e65" stroke-width="1.5"></path><path d="M1110.84 49.94L1110.84 49.94" stroke="#132e65" stroke-width="1.5"></path><path d="M1110.84 49.94L1263.19 41.02" stroke="#132e65" stroke-width="1.5"></path><path d="M1161.28 242.54L1161.28 242.54" stroke="#132e65" stroke-width="1.5"></path><path d="M1161.28 242.54L1259.41 198.17" stroke="#132e65" stroke-width="1.5"></path><path d="M1161.28 242.54L1119.93 393.64" stroke="#132e65" stroke-width="1.5"></path><path d="M1161.28 242.54L1289.29 390.88" stroke="#132e65" stroke-width="1.5"></path><path d="M1161.28 242.54L1110.84 49.94" stroke="#132e65" stroke-width="1.5"></path><path d="M1161.28 242.54L1006.39 97.58" stroke="#132e65" stroke-width="1.5"></path><path d="M1119.93 393.64L1119.93 393.64" stroke="#132e65" stroke-width="1.5"></path><path d="M1119.93 393.64L1289.29 390.88" stroke="#132e65" stroke-width="1.5"></path><path d="M1128.88 691.67L1128.88 691.67" stroke="#132e65" stroke-width="1.5"></path><path d="M1128.88 691.67L1284.13 643.02" stroke="#132e65" stroke-width="1.5"></path><path d="M1128.88 691.67L1401.02 694.82" stroke="#132e65" stroke-width="1.5"></path><path d="M1258.99 -66.28L1258.99 -66.28" stroke="#132e65" stroke-width="1.5"></path><path d="M1258.99 -66.28L1263.19 41.02" stroke="#132e65" stroke-width="1.5"></path><path d="M1258.99 -66.28L1400.52 -94.09" stroke="#132e65" stroke-width="1.5"></path><path d="M1263.19 41.02L1263.19 41.02" stroke="#132e65" stroke-width="1.5"></path><path d="M1263.19 41.02L1259.41 198.17" stroke="#132e65" stroke-width="1.5"></path><path d="M1259.41 198.17L1259.41 198.17" stroke="#132e65" stroke-width="1.5"></path><path d="M1259.41 198.17L1435.35 221.85" stroke="#132e65" stroke-width="1.5"></path><path d="M1259.41 198.17L1415.66 103.77" stroke="#132e65" stroke-width="1.5"></path><path d="M1289.29 390.88L1289.29 390.88" stroke="#132e65" stroke-width="1.5"></path><path d="M1289.29 390.88L1391.91 500.53" stroke="#132e65" stroke-width="1.5"></path><path d="M1289.29 390.88L1453.14 406.17" stroke="#132e65" stroke-width="1.5"></path><path d="M1284.13 643.02L1284.13 643.02" stroke="#132e65" stroke-width="1.5"></path><path d="M1284.13 643.02L1401.02 694.82" stroke="#132e65" stroke-width="1.5"></path><path d="M1400.52 -94.09L1400.52 -94.09" stroke="#132e65" stroke-width="1.5"></path><path d="M1415.66 103.77L1415.66 103.77" stroke="#132e65" stroke-width="1.5"></path><path d="M1415.66 103.77L1435.35 221.85" stroke="#132e65" stroke-width="1.5"></path><path d="M1415.66 103.77L1553.45 44.88" stroke="#132e65" stroke-width="1.5"></path><path d="M1415.66 103.77L1263.19 41.02" stroke="#132e65" stroke-width="1.5"></path><path d="M1415.66 103.77L1400.52 -94.09" stroke="#132e65" stroke-width="1.5"></path><path d="M1415.66 103.77L1574.85 237.73" stroke="#132e65" stroke-width="1.5"></path><path d="M1435.35 221.85L1435.35 221.85" stroke="#132e65" stroke-width="1.5"></path><path d="M1435.35 221.85L1574.85 237.73" stroke="#132e65" stroke-width="1.5"></path><path d="M1453.14 406.17L1453.14 406.17" stroke="#132e65" stroke-width="1.5"></path><path d="M1453.14 406.17L1546.54 390.19" stroke="#132e65" stroke-width="1.5"></path><path d="M1453.14 406.17L1391.91 500.53" stroke="#132e65" stroke-width="1.5"></path><path d="M1453.14 406.17L1435.35 221.85" stroke="#132e65" stroke-width="1.5"></path><path d="M1453.14 406.17L1579.88 542.38" stroke="#132e65" stroke-width="1.5"></path><path d="M1453.14 406.17L1574.85 237.73" stroke="#132e65" stroke-width="1.5"></path><path d="M1391.91 500.53L1391.91 500.53" stroke="#132e65" stroke-width="1.5"></path><path d="M1391.91 500.53L1284.13 643.02" stroke="#132e65" stroke-width="1.5"></path><path d="M1391.91 500.53L1546.54 390.19" stroke="#132e65" stroke-width="1.5"></path><path d="M1401.02 694.82L1401.02 694.82" stroke="#132e65" stroke-width="1.5"></path><path d="M1401.02 694.82L1559.01 699.81" stroke="#132e65" stroke-width="1.5"></path><path d="M1401.02 694.82L1391.91 500.53" stroke="#132e65" stroke-width="1.5"></path><path d="M1401.02 694.82L1579.88 542.38" stroke="#132e65" stroke-width="1.5"></path><path d="M1581.42 -96.92L1581.42 -96.92" stroke="#132e65" stroke-width="1.5"></path><path d="M1581.42 -96.92L1553.45 44.88" stroke="#132e65" stroke-width="1.5"></path><path d="M1581.42 -96.92L1400.52 -94.09" stroke="#132e65" stroke-width="1.5"></path><path d="M1581.42 -96.92L1415.66 103.77" stroke="#132e65" stroke-width="1.5"></path><path d="M1553.45 44.88L1553.45 44.88" stroke="#132e65" stroke-width="1.5"></path><path d="M1553.45 44.88L1574.85 237.73" stroke="#132e65" stroke-width="1.5"></path><path d="M1553.45 44.88L1400.52 -94.09" stroke="#132e65" stroke-width="1.5"></path><path d="M1574.85 237.73L1574.85 237.73" stroke="#132e65" stroke-width="1.5"></path><path d="M1574.85 237.73L1546.54 390.19" stroke="#132e65" stroke-width="1.5"></path><path d="M1546.54 390.19L1546.54 390.19" stroke="#132e65" stroke-width="1.5"></path><path d="M1546.54 390.19L1579.88 542.38" stroke="#132e65" stroke-width="1.5"></path><path d="M1579.88 542.38L1579.88 542.38" stroke="#132e65" stroke-width="1.5"></path><path d="M1579.88 542.38L1559.01 699.81" stroke="#132e65" stroke-width="1.5"></path><path d="M1559.01 699.81L1559.01 699.81" stroke="#132e65" stroke-width="1.5"></path><path d="M1559.01 699.81L1391.91 500.53" stroke="#132e65" stroke-width="1.5"></path><path d="M1559.01 699.81L1284.13 643.02" stroke="#132e65" stroke-width="1.5"></path><circle r="5" cx="-102.61" cy="393.52" fill="#132e65"></circle><circle r="5" cx="-83.08" cy="510.69" fill="#132e65"></circle><circle r="5" cx="-108.13" cy="649.25" fill="#132e65"></circle><circle r="5" cx="108.54" cy="384.98" fill="#132e65"></circle><circle r="5" cx="73.09" cy="518.29" fill="#132e65"></circle><circle r="5" cx="80.4" cy="666.55" fill="#132e65"></circle><circle r="5" cx="239.12" cy="371.78" fill="#132e65"></circle><circle r="5" cx="243.75" cy="505.93" fill="#132e65"></circle><circle r="5" cx="234.15" cy="665.59" fill="#132e65"></circle><circle r="5" cx="368.69" cy="354.66" fill="#132e65"></circle><circle r="5" cx="404.46" cy="561.74" fill="#132e65"></circle><circle r="5" cx="369.36" cy="674.47" fill="#132e65"></circle><circle r="5" cx="526.75" cy="370.19" fill="#132e65"></circle><circle r="5" cx="511.2" cy="510.09" fill="#132e65"></circle><circle r="5" cx="520.25" cy="702.16" fill="#132e65"></circle><circle r="5" cx="674.21" cy="231.66" fill="#132e65"></circle><circle r="5" cx="685.33" cy="397.66" fill="#132e65"></circle><circle r="5" cx="667.89" cy="512.84" fill="#132e65"></circle><circle r="5" cx="651.7" cy="650.3" fill="#132e65"></circle><circle r="5" cx="805.03" cy="229.89" fill="#132e65"></circle><circle r="5" cx="789.44" cy="520.73" fill="#132e65"></circle><circle r="5" cx="826.01" cy="658.88" fill="#132e65"></circle><circle r="5" cx="1011.93" cy="-90.1" fill="#132e65"></circle><circle r="5" cx="1006.39" cy="97.58" fill="#132e65"></circle><circle r="5" cx="942.33" cy="242.85" fill="#132e65"></circle><circle r="5" cx="977.34" cy="378.58" fill="#132e65"></circle><circle r="5" cx="989.66" cy="548.11" fill="#132e65"></circle><circle r="5" cx="999.17" cy="702.99" fill="#132e65"></circle><circle r="5" cx="1149.15" cy="-53.61" fill="#132e65"></circle><circle r="5" cx="1110.84" cy="49.94" fill="#132e65"></circle><circle r="5" cx="1161.28" cy="242.54" fill="#132e65"></circle><circle r="5" cx="1119.93" cy="393.64" fill="#132e65"></circle><circle r="5" cx="1128.88" cy="691.67" fill="#132e65"></circle><circle r="5" cx="1258.99" cy="-66.28" fill="#132e65"></circle><circle r="5" cx="1263.19" cy="41.02" fill="#132e65"></circle><circle r="5" cx="1259.41" cy="198.17" fill="#132e65"></circle><circle r="5" cx="1289.29" cy="390.88" fill="#132e65"></circle><circle r="5" cx="1284.13" cy="643.02" fill="#132e65"></circle><circle r="5" cx="1400.52" cy="-94.09" fill="#132e65"></circle><circle r="5" cx="1415.66" cy="103.77" fill="#132e65"></circle><circle r="5" cx="1435.35" cy="221.85" fill="#132e65"></circle><circle r="5" cx="1453.14" cy="406.17" fill="#132e65"></circle><circle r="5" cx="1391.91" cy="500.53" fill="#132e65"></circle><circle r="5" cx="1401.02" cy="694.82" fill="#132e65"></circle><circle r="5" cx="1581.42" cy="-96.92" fill="#132e65"></circle><circle r="5" cx="1553.45" cy="44.88" fill="#132e65"></circle><circle r="5" cx="1574.85" cy="237.73" fill="#132e65"></circle><circle r="5" cx="1546.54" cy="390.19" fill="#132e65"></circle><circle r="5" cx="1579.88" cy="542.38" fill="#132e65"></circle><circle r="5" cx="1559.01" cy="699.81" fill="#132e65"></circle><path d="M193.6 686.51L193.6 686.51" stroke="hsl(228.5, 77.2%, 51.5%)" stroke-width="1.5"></path><path d="M193.6 686.51L98.45 711.67" stroke="hsl(228.5, 77.2%, 51.5%)" stroke-width="1.5"></path><path d="M193.6 686.51L44.57 554.29" stroke="hsl(228.5, 77.2%, 51.5%)" stroke-width="1.5"></path><path d="M937.72 378.28L937.72 378.28" stroke="hsl(228.5, 77.2%, 51.5%)" stroke-width="1.5"></path><path d="M937.72 378.28L844.85 350.17" stroke="hsl(228.5, 77.2%, 51.5%)" stroke-width="1.5"></path><path d="M937.72 378.28L966.41 543.12" stroke="hsl(228.5, 77.2%, 51.5%)" stroke-width="1.5"></path><path d="M937.72 378.28L1132.93 385.19" stroke="hsl(228.5, 77.2%, 51.5%)" stroke-width="1.5"></path><path d="M937.72 378.28L794.05 512.93" stroke="hsl(228.5, 77.2%, 51.5%)" stroke-width="1.5"></path><path d="M1429.27 363L1429.27 363" stroke="hsl(228.5, 77.2%, 51.5%)" stroke-width="1.5"></path><path d="M1429.27 363L1308.3 350.17" stroke="hsl(228.5, 77.2%, 51.5%)" stroke-width="1.5"></path><path d="M1429.27 363L1578.88 383.23" stroke="hsl(228.5, 77.2%, 51.5%)" stroke-width="1.5"></path><path d="M1429.27 363L1419.24 550.32" stroke="hsl(228.5, 77.2%, 51.5%)" stroke-width="1.5"></path><path d="M-63.98 503.97L-63.98 503.97" stroke="hsl(228.5, 77.2%, 51.5%)" stroke-width="1.5"></path><path d="M-63.98 503.97L44.57 554.29" stroke="hsl(228.5, 77.2%, 51.5%)" stroke-width="1.5"></path><path d="M-63.98 503.97L-51.42 701.33" stroke="hsl(228.5, 77.2%, 51.5%)" stroke-width="1.5"></path><path d="M-63.98 503.97L98.45 711.67" stroke="hsl(228.5, 77.2%, 51.5%)" stroke-width="1.5"></path><path d="M-51.42 701.33L-51.42 701.33" stroke="hsl(228.5, 77.2%, 51.5%)" stroke-width="1.5"></path><path d="M-51.42 701.33L98.45 711.67" stroke="hsl(228.5, 77.2%, 51.5%)" stroke-width="1.5"></path><path d="M-51.42 701.33L44.57 554.29" stroke="hsl(228.5, 77.2%, 51.5%)" stroke-width="1.5"></path><path d="M44.57 554.29L44.57 554.29" stroke="hsl(228.5, 77.2%, 51.5%)" stroke-width="1.5"></path><path d="M44.57 554.29L98.45 711.67" stroke="hsl(228.5, 77.2%, 51.5%)" stroke-width="1.5"></path><path d="M44.57 554.29L218.57 488.49" stroke="hsl(228.5, 77.2%, 51.5%)" stroke-width="1.5"></path><path d="M98.45 711.67L98.45 711.67" stroke="hsl(228.5, 77.2%, 51.5%)" stroke-width="1.5"></path><path d="M218.57 488.49L218.57 488.49" stroke="hsl(228.5, 77.2%, 51.5%)" stroke-width="1.5"></path><path d="M218.57 488.49L353.34 531.76" stroke="hsl(228.5, 77.2%, 51.5%)" stroke-width="1.5"></path><path d="M218.57 488.49L193.6 686.51" stroke="hsl(228.5, 77.2%, 51.5%)" stroke-width="1.5"></path><path d="M218.57 488.49L98.45 711.67" stroke="hsl(228.5, 77.2%, 51.5%)" stroke-width="1.5"></path><path d="M353.34 531.76L353.34 531.76" stroke="hsl(228.5, 77.2%, 51.5%)" stroke-width="1.5"></path><path d="M353.34 531.76L403.14 667.23" stroke="hsl(228.5, 77.2%, 51.5%)" stroke-width="1.5"></path><path d="M353.34 531.76L531.43 489.11" stroke="hsl(228.5, 77.2%, 51.5%)" stroke-width="1.5"></path><path d="M353.34 531.76L193.6 686.51" stroke="hsl(228.5, 77.2%, 51.5%)" stroke-width="1.5"></path><path d="M403.14 667.23L403.14 667.23" stroke="hsl(228.5, 77.2%, 51.5%)" stroke-width="1.5"></path><path d="M403.14 667.23L193.6 686.51" stroke="hsl(228.5, 77.2%, 51.5%)" stroke-width="1.5"></path><path d="M403.14 667.23L531.43 489.11" stroke="hsl(228.5, 77.2%, 51.5%)" stroke-width="1.5"></path><path d="M403.14 667.23L218.57 488.49" stroke="hsl(228.5, 77.2%, 51.5%)" stroke-width="1.5"></path><path d="M403.14 667.23L675.73 675.32" stroke="hsl(228.5, 77.2%, 51.5%)" stroke-width="1.5"></path><path d="M531.43 489.11L531.43 489.11" stroke="hsl(228.5, 77.2%, 51.5%)" stroke-width="1.5"></path><path d="M531.43 489.11L646.01 533.81" stroke="hsl(228.5, 77.2%, 51.5%)" stroke-width="1.5"></path><path d="M646.01 533.81L646.01 533.81" stroke="hsl(228.5, 77.2%, 51.5%)" stroke-width="1.5"></path><path d="M646.01 533.81L675.73 675.32" stroke="hsl(228.5, 77.2%, 51.5%)" stroke-width="1.5"></path><path d="M646.01 533.81L794.05 512.93" stroke="hsl(228.5, 77.2%, 51.5%)" stroke-width="1.5"></path><path d="M646.01 533.81L844.85 350.17" stroke="hsl(228.5, 77.2%, 51.5%)" stroke-width="1.5"></path><path d="M646.01 533.81L403.14 667.23" stroke="hsl(228.5, 77.2%, 51.5%)" stroke-width="1.5"></path><path d="M646.01 533.81L353.34 531.76" stroke="hsl(228.5, 77.2%, 51.5%)" stroke-width="1.5"></path><path d="M675.73 675.32L675.73 675.32" stroke="hsl(228.5, 77.2%, 51.5%)" stroke-width="1.5"></path><path d="M675.73 675.32L794.05 512.93" stroke="hsl(228.5, 77.2%, 51.5%)" stroke-width="1.5"></path><path d="M675.73 675.32L531.43 489.11" stroke="hsl(228.5, 77.2%, 51.5%)" stroke-width="1.5"></path><path d="M675.73 675.32L966.41 543.12" stroke="hsl(228.5, 77.2%, 51.5%)" stroke-width="1.5"></path><path d="M844.85 350.17L844.85 350.17" stroke="hsl(228.5, 77.2%, 51.5%)" stroke-width="1.5"></path><path d="M844.85 350.17L794.05 512.93" stroke="hsl(228.5, 77.2%, 51.5%)" stroke-width="1.5"></path><path d="M844.85 350.17L966.41 543.12" stroke="hsl(228.5, 77.2%, 51.5%)" stroke-width="1.5"></path><path d="M844.85 350.17L1132.93 385.19" stroke="hsl(228.5, 77.2%, 51.5%)" stroke-width="1.5"></path><path d="M794.05 512.93L794.05 512.93" stroke="hsl(228.5, 77.2%, 51.5%)" stroke-width="1.5"></path><path d="M794.05 512.93L966.41 543.12" stroke="hsl(228.5, 77.2%, 51.5%)" stroke-width="1.5"></path><path d="M794.05 512.93L531.43 489.11" stroke="hsl(228.5, 77.2%, 51.5%)" stroke-width="1.5"></path><path d="M966.41 543.12L966.41 543.12" stroke="hsl(228.5, 77.2%, 51.5%)" stroke-width="1.5"></path><path d="M966.41 543.12L997.04 710.51" stroke="hsl(228.5, 77.2%, 51.5%)" stroke-width="1.5"></path><path d="M966.41 543.12L1146.09 542.66" stroke="hsl(228.5, 77.2%, 51.5%)" stroke-width="1.5"></path><path d="M966.41 543.12L1121.98 702.9" stroke="hsl(228.5, 77.2%, 51.5%)" stroke-width="1.5"></path><path d="M997.04 710.51L997.04 710.51" stroke="hsl(228.5, 77.2%, 51.5%)" stroke-width="1.5"></path><path d="M997.04 710.51L1121.98 702.9" stroke="hsl(228.5, 77.2%, 51.5%)" stroke-width="1.5"></path><path d="M997.04 710.51L1146.09 542.66" stroke="hsl(228.5, 77.2%, 51.5%)" stroke-width="1.5"></path><path d="M997.04 710.51L794.05 512.93" stroke="hsl(228.5, 77.2%, 51.5%)" stroke-width="1.5"></path><path d="M1152.84 202.85L1152.84 202.85" stroke="hsl(228.5, 77.2%, 51.5%)" stroke-width="1.5"></path><path d="M1152.84 202.85L1264.32 212.84" stroke="hsl(228.5, 77.2%, 51.5%)" stroke-width="1.5"></path><path d="M1132.93 385.19L1132.93 385.19" stroke="hsl(228.5, 77.2%, 51.5%)" stroke-width="1.5"></path><path d="M1132.93 385.19L1238.51 492.58" stroke="hsl(228.5, 77.2%, 51.5%)" stroke-width="1.5"></path><path d="M1132.93 385.19L1146.09 542.66" stroke="hsl(228.5, 77.2%, 51.5%)" stroke-width="1.5"></path><path d="M1132.93 385.19L1308.3 350.17" stroke="hsl(228.5, 77.2%, 51.5%)" stroke-width="1.5"></path><path d="M1146.09 542.66L1146.09 542.66" stroke="hsl(228.5, 77.2%, 51.5%)" stroke-width="1.5"></path><path d="M1146.09 542.66L1238.51 492.58" stroke="hsl(228.5, 77.2%, 51.5%)" stroke-width="1.5"></path><path d="M1146.09 542.66L1121.98 702.9" stroke="hsl(228.5, 77.2%, 51.5%)" stroke-width="1.5"></path><path d="M1146.09 542.66L1293.8 649.67" stroke="hsl(228.5, 77.2%, 51.5%)" stroke-width="1.5"></path><path d="M1121.98 702.9L1121.98 702.9" stroke="hsl(228.5, 77.2%, 51.5%)" stroke-width="1.5"></path><path d="M1121.98 702.9L1293.8 649.67" stroke="hsl(228.5, 77.2%, 51.5%)" stroke-width="1.5"></path><path d="M1274.77 -94.98L1274.77 -94.98" stroke="hsl(228.5, 77.2%, 51.5%)" stroke-width="1.5"></path><path d="M1274.77 -94.98L1439.47 -63.04" stroke="hsl(228.5, 77.2%, 51.5%)" stroke-width="1.5"></path><path d="M1274.77 -94.98L1398.15 39.71" stroke="hsl(228.5, 77.2%, 51.5%)" stroke-width="1.5"></path><path d="M1274.77 -94.98L1302.29 109.15" stroke="hsl(228.5, 77.2%, 51.5%)" stroke-width="1.5"></path><path d="M1274.77 -94.98L1264.32 212.84" stroke="hsl(228.5, 77.2%, 51.5%)" stroke-width="1.5"></path><path d="M1274.77 -94.98L1585.66 -97.17" stroke="hsl(228.5, 77.2%, 51.5%)" stroke-width="1.5"></path><path d="M1274.77 -94.98L1562.03 40.72" stroke="hsl(228.5, 77.2%, 51.5%)" stroke-width="1.5"></path><path d="M1302.29 109.15L1302.29 109.15" stroke="hsl(228.5, 77.2%, 51.5%)" stroke-width="1.5"></path><path d="M1302.29 109.15L1264.32 212.84" stroke="hsl(228.5, 77.2%, 51.5%)" stroke-width="1.5"></path><path d="M1302.29 109.15L1398.15 39.71" stroke="hsl(228.5, 77.2%, 51.5%)" stroke-width="1.5"></path><path d="M1264.32 212.84L1264.32 212.84" stroke="hsl(228.5, 77.2%, 51.5%)" stroke-width="1.5"></path><path d="M1264.32 212.84L1308.3 350.17" stroke="hsl(228.5, 77.2%, 51.5%)" stroke-width="1.5"></path><path d="M1264.32 212.84L1132.93 385.19" stroke="hsl(228.5, 77.2%, 51.5%)" stroke-width="1.5"></path><path d="M1264.32 212.84L1398.15 39.71" stroke="hsl(228.5, 77.2%, 51.5%)" stroke-width="1.5"></path><path d="M1264.32 212.84L1429.27 363" stroke="hsl(228.5, 77.2%, 51.5%)" stroke-width="1.5"></path><path d="M1308.3 350.17L1308.3 350.17" stroke="hsl(228.5, 77.2%, 51.5%)" stroke-width="1.5"></path><path d="M1308.3 350.17L1238.51 492.58" stroke="hsl(228.5, 77.2%, 51.5%)" stroke-width="1.5"></path><path d="M1238.51 492.58L1238.51 492.58" stroke="hsl(228.5, 77.2%, 51.5%)" stroke-width="1.5"></path><path d="M1293.8 649.67L1293.8 649.67" stroke="hsl(228.5, 77.2%, 51.5%)" stroke-width="1.5"></path><path d="M1293.8 649.67L1428.54 702.39" stroke="hsl(228.5, 77.2%, 51.5%)" stroke-width="1.5"></path><path d="M1293.8 649.67L1419.24 550.32" stroke="hsl(228.5, 77.2%, 51.5%)" stroke-width="1.5"></path><path d="M1293.8 649.67L1238.51 492.58" stroke="hsl(228.5, 77.2%, 51.5%)" stroke-width="1.5"></path><path d="M1439.47 -63.04L1439.47 -63.04" stroke="hsl(228.5, 77.2%, 51.5%)" stroke-width="1.5"></path><path d="M1439.47 -63.04L1398.15 39.71" stroke="hsl(228.5, 77.2%, 51.5%)" stroke-width="1.5"></path><path d="M1439.47 -63.04L1585.66 -97.17" stroke="hsl(228.5, 77.2%, 51.5%)" stroke-width="1.5"></path><path d="M1439.47 -63.04L1562.03 40.72" stroke="hsl(228.5, 77.2%, 51.5%)" stroke-width="1.5"></path><path d="M1439.47 -63.04L1302.29 109.15" stroke="hsl(228.5, 77.2%, 51.5%)" stroke-width="1.5"></path><path d="M1398.15 39.71L1398.15 39.71" stroke="hsl(228.5, 77.2%, 51.5%)" stroke-width="1.5"></path><path d="M1398.15 39.71L1562.03 40.72" stroke="hsl(228.5, 77.2%, 51.5%)" stroke-width="1.5"></path><path d="M1398.15 39.71L1585.66 -97.17" stroke="hsl(228.5, 77.2%, 51.5%)" stroke-width="1.5"></path><path d="M1419.24 550.32L1419.24 550.32" stroke="hsl(228.5, 77.2%, 51.5%)" stroke-width="1.5"></path><path d="M1419.24 550.32L1428.54 702.39" stroke="hsl(228.5, 77.2%, 51.5%)" stroke-width="1.5"></path><path d="M1419.24 550.32L1590.23 500.61" stroke="hsl(228.5, 77.2%, 51.5%)" stroke-width="1.5"></path><path d="M1428.54 702.39L1428.54 702.39" stroke="hsl(228.5, 77.2%, 51.5%)" stroke-width="1.5"></path><path d="M1428.54 702.39L1541.96 709.77" stroke="hsl(228.5, 77.2%, 51.5%)" stroke-width="1.5"></path><path d="M1585.66 -97.17L1585.66 -97.17" stroke="hsl(228.5, 77.2%, 51.5%)" stroke-width="1.5"></path><path d="M1585.66 -97.17L1562.03 40.72" stroke="hsl(228.5, 77.2%, 51.5%)" stroke-width="1.5"></path><path d="M1585.66 -97.17L1576.27 230.93" stroke="hsl(228.5, 77.2%, 51.5%)" stroke-width="1.5"></path><path d="M1585.66 -97.17L1302.29 109.15" stroke="hsl(228.5, 77.2%, 51.5%)" stroke-width="1.5"></path><path d="M1562.03 40.72L1562.03 40.72" stroke="hsl(228.5, 77.2%, 51.5%)" stroke-width="1.5"></path><path d="M1562.03 40.72L1576.27 230.93" stroke="hsl(228.5, 77.2%, 51.5%)" stroke-width="1.5"></path><path d="M1562.03 40.72L1302.29 109.15" stroke="hsl(228.5, 77.2%, 51.5%)" stroke-width="1.5"></path><path d="M1576.27 230.93L1576.27 230.93" stroke="hsl(228.5, 77.2%, 51.5%)" stroke-width="1.5"></path><path d="M1576.27 230.93L1578.88 383.23" stroke="hsl(228.5, 77.2%, 51.5%)" stroke-width="1.5"></path><path d="M1576.27 230.93L1429.27 363" stroke="hsl(228.5, 77.2%, 51.5%)" stroke-width="1.5"></path><path d="M1576.27 230.93L1398.15 39.71" stroke="hsl(228.5, 77.2%, 51.5%)" stroke-width="1.5"></path><path d="M1578.88 383.23L1578.88 383.23" stroke="hsl(228.5, 77.2%, 51.5%)" stroke-width="1.5"></path><path d="M1578.88 383.23L1590.23 500.61" stroke="hsl(228.5, 77.2%, 51.5%)" stroke-width="1.5"></path><path d="M1578.88 383.23L1419.24 550.32" stroke="hsl(228.5, 77.2%, 51.5%)" stroke-width="1.5"></path><path d="M1578.88 383.23L1308.3 350.17" stroke="hsl(228.5, 77.2%, 51.5%)" stroke-width="1.5"></path><path d="M1590.23 500.61L1590.23 500.61" stroke="hsl(228.5, 77.2%, 51.5%)" stroke-width="1.5"></path><path d="M1541.96 709.77L1541.96 709.77" stroke="hsl(228.5, 77.2%, 51.5%)" stroke-width="1.5"></path><path d="M1541.96 709.77L1419.24 550.32" stroke="hsl(228.5, 77.2%, 51.5%)" stroke-width="1.5"></path><path d="M1541.96 709.77L1590.23 500.61" stroke="hsl(228.5, 77.2%, 51.5%)" stroke-width="1.5"></path><path d="M1541.96 709.77L1293.8 649.67" stroke="hsl(228.5, 77.2%, 51.5%)" stroke-width="1.5"></path><path d="M1541.96 709.77L1578.88 383.23" stroke="hsl(228.5, 77.2%, 51.5%)" stroke-width="1.5"></path><circle r="25" cx="193.6" cy="686.51" fill="url(&quot;#SvgjsRadialGradient1027&quot;)"></circle><circle r="25" cx="937.72" cy="378.28" fill="url(&quot;#SvgjsRadialGradient1027&quot;)"></circle><circle r="25" cx="1429.27" cy="363" fill="url(&quot;#SvgjsRadialGradient1027&quot;)"></circle><circle r="5" cx="-63.98" cy="503.97" fill="#8b9ad9"></circle><circle r="5" cx="-51.42" cy="701.33" fill="#8b9ad9"></circle><circle r="5" cx="44.57" cy="554.29" fill="#8b9ad9"></circle><circle r="5" cx="98.45" cy="711.67" fill="#8b9ad9"></circle><circle r="5" cx="218.57" cy="488.49" fill="#8b9ad9"></circle><circle r="5" cx="353.34" cy="531.76" fill="#8b9ad9"></circle><circle r="5" cx="403.14" cy="667.23" fill="#8b9ad9"></circle><circle r="5" cx="531.43" cy="489.11" fill="#8b9ad9"></circle><circle r="5" cx="646.01" cy="533.81" fill="#8b9ad9"></circle><circle r="5" cx="675.73" cy="675.32" fill="#8b9ad9"></circle><circle r="5" cx="844.85" cy="350.17" fill="#8b9ad9"></circle><circle r="5" cx="794.05" cy="512.93" fill="#8b9ad9"></circle><circle r="5" cx="966.41" cy="543.12" fill="#8b9ad9"></circle><circle r="5" cx="997.04" cy="710.51" fill="#8b9ad9"></circle><circle r="5" cx="1152.84" cy="202.85" fill="#8b9ad9"></circle><circle r="5" cx="1132.93" cy="385.19" fill="#8b9ad9"></circle><circle r="5" cx="1146.09" cy="542.66" fill="#8b9ad9"></circle><circle r="5" cx="1121.98" cy="702.9" fill="#8b9ad9"></circle><circle r="5" cx="1274.77" cy="-94.98" fill="#8b9ad9"></circle><circle r="5" cx="1302.29" cy="109.15" fill="#8b9ad9"></circle><circle r="5" cx="1264.32" cy="212.84" fill="#8b9ad9"></circle><circle r="5" cx="1308.3" cy="350.17" fill="#8b9ad9"></circle><circle r="5" cx="1238.51" cy="492.58" fill="#8b9ad9"></circle><circle r="5" cx="1293.8" cy="649.67" fill="#8b9ad9"></circle><circle r="5" cx="1439.47" cy="-63.04" fill="#8b9ad9"></circle><circle r="5" cx="1398.15" cy="39.71" fill="#8b9ad9"></circle><circle r="5" cx="1419.24" cy="550.32" fill="#8b9ad9"></circle><circle r="5" cx="1428.54" cy="702.39" fill="#8b9ad9"></circle><circle r="5" cx="1585.66" cy="-97.17" fill="#8b9ad9"></circle><circle r="5" cx="1562.03" cy="40.72" fill="#8b9ad9"></circle><circle r="5" cx="1576.27" cy="230.93" fill="#8b9ad9"></circle><circle r="5" cx="1578.88" cy="383.23" fill="#8b9ad9"></circle><circle r="5" cx="1590.23" cy="500.61" fill="#8b9ad9"></circle><circle r="5" cx="1541.96" cy="709.77" fill="#8b9ad9"></circle></g><defs><mask id="SvgjsMask1026"><rect width="1440" height="560" fill="#ffffff"></rect></mask><radialGradient id="SvgjsRadialGradient1027"><stop stop-color="#ffffff" offset="0.1"></stop><stop stop-color="#1735b3" offset="0.2"></stop><stop stop-color="rgba(23, 53, 179, 0)" offset="1"></stop></radialGradient></defs></svg>