<svg xmlns="http://www.w3.org/2000/svg" version="1.1" xmlns:xlink="http://www.w3.org/1999/xlink" xmlns:svgjs="http://svgjs.dev/svgjs" width="1440" height="560" preserveAspectRatio="none" viewBox="0 0 1440 560"><g mask="url(&quot;#SvgjsMask1002&quot;)" fill="none"><rect width="1440" height="560" x="0" y="0" fill="url(&quot;#SvgjsLinearGradient1003&quot;)"></rect><path d="M1440 0L1344.59 0L1440 276.6z" fill="rgba(255, 255, 255, .1)"></path><path d="M1344.59 0L1440 276.6L1440 340.91L1113.96 0z" fill="rgba(255, 255, 255, .075)"></path><path d="M1113.96 0L1440 340.91L1440 374.84000000000003L422.87 0z" fill="rgba(255, 255, 255, .05)"></path><path d="M422.87 0L1440 374.84000000000003L1440 499.75L292.71000000000004 0z" fill="rgba(255, 255, 255, .025)"></path><path d="M0 560L6.26 560L0 552.7z" fill="rgba(0, 0, 0, .1)"></path><path d="M0 552.7L6.26 560L598.5699999999999 560L0 289.48z" fill="rgba(0, 0, 0, .075)"></path><path d="M0 289.47999999999996L598.5699999999999 560L750.6199999999999 560L0 177.89999999999998z" fill="rgba(0, 0, 0, .05)"></path><path d="M0 177.89999999999998L750.6199999999999 560L973.1799999999998 560L0 109.04999999999998z" fill="rgba(0, 0, 0, .025)"></path></g><defs><mask id="SvgjsMask1002"><rect width="1440" height="560" fill="#ffffff"></rect></mask><linearGradient x1="15.28%" y1="-39.29%" x2="84.72%" y2="139.29%" gradientUnits="userSpaceOnUse" id="SvgjsLinearGradient1003"><stop stop-color="#0e2a47" offset="0"></stop><stop stop-color="#00459e" offset="1"></stop></linearGradient></defs></svg>