<svg xmlns="http://www.w3.org/2000/svg" version="1.1" xmlns:xlink="http://www.w3.org/1999/xlink" xmlns:svgjs="http://svgjs.dev/svgjs" width="1440" height="560" preserveAspectRatio="none" viewBox="0 0 1440 560"><g mask="url(&quot;#SvgjsMask2826&quot;)" fill="none"><rect width="1440" height="560" x="0" y="0" fill="url(&quot;#SvgjsLinearGradient2827&quot;)"></rect><path d="M-57.57 385.82L-57.57 385.82" stroke="rgba(226, 239, 233, 1)" stroke-width="1.5"></path><path d="M-57.57 385.82L60.23 376.71" stroke="rgba(226, 239, 233, 1)" stroke-width="1.5"></path><path d="M-57.57 385.82L-44.01 511.41" stroke="rgba(226, 239, 233, 1)" stroke-width="1.5"></path><path d="M-57.57 385.82L49.61 510.85" stroke="rgba(226, 239, 233, 1)" stroke-width="1.5"></path><path d="M-44.01 511.41L-44.01 511.41" stroke="rgba(226, 239, 233, 1)" stroke-width="1.5"></path><path d="M-44.01 511.41L49.61 510.85" stroke="rgba(226, 239, 233, 1)" stroke-width="1.5"></path><path d="M-100.47 711.03L-100.47 711.03" stroke="rgba(226, 239, 233, 1)" stroke-width="1.5"></path><path d="M-100.47 711.03L42.3 670.74" stroke="rgba(226, 239, 233, 1)" stroke-width="1.5"></path><path d="M-100.47 711.03L-44.01 511.41" stroke="rgba(226, 239, 233, 1)" stroke-width="1.5"></path><path d="M-100.47 711.03L49.61 510.85" stroke="rgba(226, 239, 233, 1)" stroke-width="1.5"></path><path d="M-100.47 711.03L-57.57 385.82" stroke="rgba(226, 239, 233, 1)" stroke-width="1.5"></path><path d="M-100.47 711.03L243.55 707.7" stroke="rgba(226, 239, 233, 1)" stroke-width="1.5"></path><path d="M-100.47 711.03L205.63 516.53" stroke="rgba(226, 239, 233, 1)" stroke-width="1.5"></path><path d="M60.23 376.71L60.23 376.71" stroke="rgba(226, 239, 233, 1)" stroke-width="1.5"></path><path d="M60.23 376.71L49.61 510.85" stroke="rgba(226, 239, 233, 1)" stroke-width="1.5"></path><path d="M49.61 510.85L49.61 510.85" stroke="rgba(226, 239, 233, 1)" stroke-width="1.5"></path><path d="M49.61 510.85L205.63 516.53" stroke="rgba(226, 239, 233, 1)" stroke-width="1.5"></path><path d="M42.3 670.74L42.3 670.74" stroke="rgba(226, 239, 233, 1)" stroke-width="1.5"></path><path d="M42.3 670.74L49.61 510.85" stroke="rgba(226, 239, 233, 1)" stroke-width="1.5"></path><path d="M205.63 516.53L205.63 516.53" stroke="rgba(226, 239, 233, 1)" stroke-width="1.5"></path><path d="M205.63 516.53L345.99 551.61" stroke="rgba(226, 239, 233, 1)" stroke-width="1.5"></path><path d="M243.55 707.7L243.55 707.7" stroke="rgba(226, 239, 233, 1)" stroke-width="1.5"></path><path d="M243.55 707.7L402.92 647.53" stroke="rgba(226, 239, 233, 1)" stroke-width="1.5"></path><path d="M243.55 707.7L345.99 551.61" stroke="rgba(226, 239, 233, 1)" stroke-width="1.5"></path><path d="M369.49 409.26L369.49 409.26" stroke="rgba(226, 239, 233, 1)" stroke-width="1.5"></path><path d="M369.49 409.26L345.99 551.61" stroke="rgba(226, 239, 233, 1)" stroke-width="1.5"></path><path d="M369.49 409.26L502.3 520.38" stroke="rgba(226, 239, 233, 1)" stroke-width="1.5"></path><path d="M369.49 409.26L559.77 391.35" stroke="rgba(226, 239, 233, 1)" stroke-width="1.5"></path><path d="M369.49 409.26L205.63 516.53" stroke="rgba(226, 239, 233, 1)" stroke-width="1.5"></path><path d="M369.49 409.26L402.92 647.53" stroke="rgba(226, 239, 233, 1)" stroke-width="1.5"></path><path d="M369.49 409.26L533.55 641.99" stroke="rgba(226, 239, 233, 1)" stroke-width="1.5"></path><path d="M345.99 551.61L345.99 551.61" stroke="rgba(226, 239, 233, 1)" stroke-width="1.5"></path><path d="M345.99 551.61L402.92 647.53" stroke="rgba(226, 239, 233, 1)" stroke-width="1.5"></path><path d="M345.99 551.61L502.3 520.38" stroke="rgba(226, 239, 233, 1)" stroke-width="1.5"></path><path d="M402.92 647.53L402.92 647.53" stroke="rgba(226, 239, 233, 1)" stroke-width="1.5"></path><path d="M402.92 647.53L533.55 641.99" stroke="rgba(226, 239, 233, 1)" stroke-width="1.5"></path><path d="M402.92 647.53L502.3 520.38" stroke="rgba(226, 239, 233, 1)" stroke-width="1.5"></path><path d="M559.77 391.35L559.77 391.35" stroke="rgba(226, 239, 233, 1)" stroke-width="1.5"></path><path d="M559.77 391.35L502.3 520.38" stroke="rgba(226, 239, 233, 1)" stroke-width="1.5"></path><path d="M559.77 391.35L659.38 528.93" stroke="rgba(226, 239, 233, 1)" stroke-width="1.5"></path><path d="M559.77 391.35L708.51 215.44" stroke="rgba(226, 239, 233, 1)" stroke-width="1.5"></path><path d="M502.3 520.38L502.3 520.38" stroke="rgba(226, 239, 233, 1)" stroke-width="1.5"></path><path d="M502.3 520.38L533.55 641.99" stroke="rgba(226, 239, 233, 1)" stroke-width="1.5"></path><path d="M502.3 520.38L659.38 528.93" stroke="rgba(226, 239, 233, 1)" stroke-width="1.5"></path><path d="M533.55 641.99L533.55 641.99" stroke="rgba(226, 239, 233, 1)" stroke-width="1.5"></path><path d="M533.55 641.99L660.51 676.38" stroke="rgba(226, 239, 233, 1)" stroke-width="1.5"></path><path d="M533.55 641.99L659.38 528.93" stroke="rgba(226, 239, 233, 1)" stroke-width="1.5"></path><path d="M708.51 215.44L708.51 215.44" stroke="rgba(226, 239, 233, 1)" stroke-width="1.5"></path><path d="M708.51 215.44L858.21 232.73" stroke="rgba(226, 239, 233, 1)" stroke-width="1.5"></path><path d="M708.51 215.44L832.8 387.95" stroke="rgba(226, 239, 233, 1)" stroke-width="1.5"></path><path d="M659.38 528.93L659.38 528.93" stroke="rgba(226, 239, 233, 1)" stroke-width="1.5"></path><path d="M659.38 528.93L660.51 676.38" stroke="rgba(226, 239, 233, 1)" stroke-width="1.5"></path><path d="M660.51 676.38L660.51 676.38" stroke="rgba(226, 239, 233, 1)" stroke-width="1.5"></path><path d="M660.51 676.38L794.48 707.2" stroke="rgba(226, 239, 233, 1)" stroke-width="1.5"></path><path d="M660.51 676.38L502.3 520.38" stroke="rgba(226, 239, 233, 1)" stroke-width="1.5"></path><path d="M660.51 676.38L806.71 491.98" stroke="rgba(226, 239, 233, 1)" stroke-width="1.5"></path><path d="M858.21 232.73L858.21 232.73" stroke="rgba(226, 239, 233, 1)" stroke-width="1.5"></path><path d="M858.21 232.73L1010.67 215.29" stroke="rgba(226, 239, 233, 1)" stroke-width="1.5"></path><path d="M858.21 232.73L832.8 387.95" stroke="rgba(226, 239, 233, 1)" stroke-width="1.5"></path><path d="M858.21 232.73L987.55 379.24" stroke="rgba(226, 239, 233, 1)" stroke-width="1.5"></path><path d="M858.21 232.73L1006.23 42.98" stroke="rgba(226, 239, 233, 1)" stroke-width="1.5"></path><path d="M832.8 387.95L832.8 387.95" stroke="rgba(226, 239, 233, 1)" stroke-width="1.5"></path><path d="M832.8 387.95L806.71 491.98" stroke="rgba(226, 239, 233, 1)" stroke-width="1.5"></path><path d="M832.8 387.95L987.55 379.24" stroke="rgba(226, 239, 233, 1)" stroke-width="1.5"></path><path d="M832.8 387.95L943.75 533.25" stroke="rgba(226, 239, 233, 1)" stroke-width="1.5"></path><path d="M806.71 491.98L806.71 491.98" stroke="rgba(226, 239, 233, 1)" stroke-width="1.5"></path><path d="M806.71 491.98L943.75 533.25" stroke="rgba(226, 239, 233, 1)" stroke-width="1.5"></path><path d="M806.71 491.98L659.38 528.93" stroke="rgba(226, 239, 233, 1)" stroke-width="1.5"></path><path d="M794.48 707.2L794.48 707.2" stroke="rgba(226, 239, 233, 1)" stroke-width="1.5"></path><path d="M794.48 707.2L979.38 640.52" stroke="rgba(226, 239, 233, 1)" stroke-width="1.5"></path><path d="M794.48 707.2L806.71 491.98" stroke="rgba(226, 239, 233, 1)" stroke-width="1.5"></path><path d="M794.48 707.2L659.38 528.93" stroke="rgba(226, 239, 233, 1)" stroke-width="1.5"></path><path d="M794.48 707.2L943.75 533.25" stroke="rgba(226, 239, 233, 1)" stroke-width="1.5"></path><path d="M1009.61 -46.33L1009.61 -46.33" stroke="rgba(226, 239, 233, 1)" stroke-width="1.5"></path><path d="M1009.61 -46.33L1006.23 42.98" stroke="rgba(226, 239, 233, 1)" stroke-width="1.5"></path><path d="M1009.61 -46.33L1093.49 -78.06" stroke="rgba(226, 239, 233, 1)" stroke-width="1.5"></path><path d="M1009.61 -46.33L1119.37 101.32" stroke="rgba(226, 239, 233, 1)" stroke-width="1.5"></path><path d="M1009.61 -46.33L1010.67 215.29" stroke="rgba(226, 239, 233, 1)" stroke-width="1.5"></path><path d="M1009.61 -46.33L1112.68 197.68" stroke="rgba(226, 239, 233, 1)" stroke-width="1.5"></path><path d="M1006.23 42.98L1006.23 42.98" stroke="rgba(226, 239, 233, 1)" stroke-width="1.5"></path><path d="M1006.23 42.98L1119.37 101.32" stroke="rgba(226, 239, 233, 1)" stroke-width="1.5"></path><path d="M1006.23 42.98L1093.49 -78.06" stroke="rgba(226, 239, 233, 1)" stroke-width="1.5"></path><path d="M1006.23 42.98L1010.67 215.29" stroke="rgba(226, 239, 233, 1)" stroke-width="1.5"></path><path d="M1006.23 42.98L1112.68 197.68" stroke="rgba(226, 239, 233, 1)" stroke-width="1.5"></path><path d="M1010.67 215.29L1010.67 215.29" stroke="rgba(226, 239, 233, 1)" stroke-width="1.5"></path><path d="M1010.67 215.29L1112.68 197.68" stroke="rgba(226, 239, 233, 1)" stroke-width="1.5"></path><path d="M987.55 379.24L987.55 379.24" stroke="rgba(226, 239, 233, 1)" stroke-width="1.5"></path><path d="M987.55 379.24L943.75 533.25" stroke="rgba(226, 239, 233, 1)" stroke-width="1.5"></path><path d="M987.55 379.24L1010.67 215.29" stroke="rgba(226, 239, 233, 1)" stroke-width="1.5"></path><path d="M987.55 379.24L1158.82 359.86" stroke="rgba(226, 239, 233, 1)" stroke-width="1.5"></path><path d="M943.75 533.25L943.75 533.25" stroke="rgba(226, 239, 233, 1)" stroke-width="1.5"></path><path d="M943.75 533.25L979.38 640.52" stroke="rgba(226, 239, 233, 1)" stroke-width="1.5"></path><path d="M979.38 640.52L979.38 640.52" stroke="rgba(226, 239, 233, 1)" stroke-width="1.5"></path><path d="M979.38 640.52L1103.81 637.86" stroke="rgba(226, 239, 233, 1)" stroke-width="1.5"></path><path d="M979.38 640.52L806.71 491.98" stroke="rgba(226, 239, 233, 1)" stroke-width="1.5"></path><path d="M979.38 640.52L1153.92 489.11" stroke="rgba(226, 239, 233, 1)" stroke-width="1.5"></path><path d="M1093.49 -78.06L1093.49 -78.06" stroke="rgba(226, 239, 233, 1)" stroke-width="1.5"></path><path d="M1093.49 -78.06L1119.37 101.32" stroke="rgba(226, 239, 233, 1)" stroke-width="1.5"></path><path d="M1119.37 101.32L1119.37 101.32" stroke="rgba(226, 239, 233, 1)" stroke-width="1.5"></path><path d="M1119.37 101.32L1112.68 197.68" stroke="rgba(226, 239, 233, 1)" stroke-width="1.5"></path><path d="M1112.68 197.68L1112.68 197.68" stroke="rgba(226, 239, 233, 1)" stroke-width="1.5"></path><path d="M1112.68 197.68L1158.82 359.86" stroke="rgba(226, 239, 233, 1)" stroke-width="1.5"></path><path d="M1112.68 197.68L1285.81 225.72" stroke="rgba(226, 239, 233, 1)" stroke-width="1.5"></path><path d="M1158.82 359.86L1158.82 359.86" stroke="rgba(226, 239, 233, 1)" stroke-width="1.5"></path><path d="M1158.82 359.86L1153.92 489.11" stroke="rgba(226, 239, 233, 1)" stroke-width="1.5"></path><path d="M1158.82 359.86L1289.41 340.74" stroke="rgba(226, 239, 233, 1)" stroke-width="1.5"></path><path d="M1158.82 359.86L1285.81 225.72" stroke="rgba(226, 239, 233, 1)" stroke-width="1.5"></path><path d="M1158.82 359.86L1260.69 515.39" stroke="rgba(226, 239, 233, 1)" stroke-width="1.5"></path><path d="M1153.92 489.11L1153.92 489.11" stroke="rgba(226, 239, 233, 1)" stroke-width="1.5"></path><path d="M1153.92 489.11L1260.69 515.39" stroke="rgba(226, 239, 233, 1)" stroke-width="1.5"></path><path d="M1153.92 489.11L1103.81 637.86" stroke="rgba(226, 239, 233, 1)" stroke-width="1.5"></path><path d="M1153.92 489.11L987.55 379.24" stroke="rgba(226, 239, 233, 1)" stroke-width="1.5"></path><path d="M1153.92 489.11L1289.41 340.74" stroke="rgba(226, 239, 233, 1)" stroke-width="1.5"></path><path d="M1153.92 489.11L1271.26 661.02" stroke="rgba(226, 239, 233, 1)" stroke-width="1.5"></path><path d="M1103.81 637.86L1103.81 637.86" stroke="rgba(226, 239, 233, 1)" stroke-width="1.5"></path><path d="M1103.81 637.86L1271.26 661.02" stroke="rgba(226, 239, 233, 1)" stroke-width="1.5"></path><path d="M1103.81 637.86L943.75 533.25" stroke="rgba(226, 239, 233, 1)" stroke-width="1.5"></path><path d="M1103.81 637.86L1260.69 515.39" stroke="rgba(226, 239, 233, 1)" stroke-width="1.5"></path><path d="M1103.81 637.86L1158.82 359.86" stroke="rgba(226, 239, 233, 1)" stroke-width="1.5"></path><path d="M1295.32 -43.76L1295.32 -43.76" stroke="rgba(226, 239, 233, 1)" stroke-width="1.5"></path><path d="M1295.32 -43.76L1427.38 -56.83" stroke="rgba(226, 239, 233, 1)" stroke-width="1.5"></path><path d="M1295.32 -43.76L1309.28 107.83" stroke="rgba(226, 239, 233, 1)" stroke-width="1.5"></path><path d="M1295.32 -43.76L1435.54 89.33" stroke="rgba(226, 239, 233, 1)" stroke-width="1.5"></path><path d="M1295.32 -43.76L1093.49 -78.06" stroke="rgba(226, 239, 233, 1)" stroke-width="1.5"></path><path d="M1295.32 -43.76L1119.37 101.32" stroke="rgba(226, 239, 233, 1)" stroke-width="1.5"></path><path d="M1295.32 -43.76L1285.81 225.72" stroke="rgba(226, 239, 233, 1)" stroke-width="1.5"></path><path d="M1309.28 107.83L1309.28 107.83" stroke="rgba(226, 239, 233, 1)" stroke-width="1.5"></path><path d="M1309.28 107.83L1285.81 225.72" stroke="rgba(226, 239, 233, 1)" stroke-width="1.5"></path><path d="M1309.28 107.83L1435.54 89.33" stroke="rgba(226, 239, 233, 1)" stroke-width="1.5"></path><path d="M1285.81 225.72L1285.81 225.72" stroke="rgba(226, 239, 233, 1)" stroke-width="1.5"></path><path d="M1285.81 225.72L1289.41 340.74" stroke="rgba(226, 239, 233, 1)" stroke-width="1.5"></path><path d="M1285.81 225.72L1446.14 198.67" stroke="rgba(226, 239, 233, 1)" stroke-width="1.5"></path><path d="M1285.81 225.72L1435.54 89.33" stroke="rgba(226, 239, 233, 1)" stroke-width="1.5"></path><path d="M1289.41 340.74L1289.41 340.74" stroke="rgba(226, 239, 233, 1)" stroke-width="1.5"></path><path d="M1289.41 340.74L1438.17 395.53" stroke="rgba(226, 239, 233, 1)" stroke-width="1.5"></path><path d="M1289.41 340.74L1260.69 515.39" stroke="rgba(226, 239, 233, 1)" stroke-width="1.5"></path><path d="M1289.41 340.74L1446.14 198.67" stroke="rgba(226, 239, 233, 1)" stroke-width="1.5"></path><path d="M1260.69 515.39L1260.69 515.39" stroke="rgba(226, 239, 233, 1)" stroke-width="1.5"></path><path d="M1260.69 515.39L1271.26 661.02" stroke="rgba(226, 239, 233, 1)" stroke-width="1.5"></path><path d="M1260.69 515.39L1445.49 537.76" stroke="rgba(226, 239, 233, 1)" stroke-width="1.5"></path><path d="M1271.26 661.02L1271.26 661.02" stroke="rgba(226, 239, 233, 1)" stroke-width="1.5"></path><path d="M1271.26 661.02L1413.29 646.69" stroke="rgba(226, 239, 233, 1)" stroke-width="1.5"></path><path d="M1427.38 -56.83L1427.38 -56.83" stroke="rgba(226, 239, 233, 1)" stroke-width="1.5"></path><path d="M1427.38 -56.83L1435.54 89.33" stroke="rgba(226, 239, 233, 1)" stroke-width="1.5"></path><path d="M1427.38 -56.83L1582.3 -54.9" stroke="rgba(226, 239, 233, 1)" stroke-width="1.5"></path><path d="M1427.38 -56.83L1309.28 107.83" stroke="rgba(226, 239, 233, 1)" stroke-width="1.5"></path><path d="M1427.38 -56.83L1608.99 95.33" stroke="rgba(226, 239, 233, 1)" stroke-width="1.5"></path><path d="M1435.54 89.33L1435.54 89.33" stroke="rgba(226, 239, 233, 1)" stroke-width="1.5"></path><path d="M1435.54 89.33L1446.14 198.67" stroke="rgba(226, 239, 233, 1)" stroke-width="1.5"></path><path d="M1435.54 89.33L1608.99 95.33" stroke="rgba(226, 239, 233, 1)" stroke-width="1.5"></path><path d="M1446.14 198.67L1446.14 198.67" stroke="rgba(226, 239, 233, 1)" stroke-width="1.5"></path><path d="M1446.14 198.67L1585.88 195.1" stroke="rgba(226, 239, 233, 1)" stroke-width="1.5"></path><path d="M1446.14 198.67L1309.28 107.83" stroke="rgba(226, 239, 233, 1)" stroke-width="1.5"></path><path d="M1446.14 198.67L1608.99 95.33" stroke="rgba(226, 239, 233, 1)" stroke-width="1.5"></path><path d="M1438.17 395.53L1438.17 395.53" stroke="rgba(226, 239, 233, 1)" stroke-width="1.5"></path><path d="M1438.17 395.53L1445.49 537.76" stroke="rgba(226, 239, 233, 1)" stroke-width="1.5"></path><path d="M1438.17 395.53L1584.15 372.95" stroke="rgba(226, 239, 233, 1)" stroke-width="1.5"></path><path d="M1438.17 395.53L1540.19 512.79" stroke="rgba(226, 239, 233, 1)" stroke-width="1.5"></path><path d="M1445.49 537.76L1445.49 537.76" stroke="rgba(226, 239, 233, 1)" stroke-width="1.5"></path><path d="M1445.49 537.76L1540.19 512.79" stroke="rgba(226, 239, 233, 1)" stroke-width="1.5"></path><path d="M1445.49 537.76L1413.29 646.69" stroke="rgba(226, 239, 233, 1)" stroke-width="1.5"></path><path d="M1413.29 646.69L1413.29 646.69" stroke="rgba(226, 239, 233, 1)" stroke-width="1.5"></path><path d="M1413.29 646.69L1584.03 682.54" stroke="rgba(226, 239, 233, 1)" stroke-width="1.5"></path><path d="M1413.29 646.69L1540.19 512.79" stroke="rgba(226, 239, 233, 1)" stroke-width="1.5"></path><path d="M1582.3 -54.9L1582.3 -54.9" stroke="rgba(226, 239, 233, 1)" stroke-width="1.5"></path><path d="M1582.3 -54.9L1608.99 95.33" stroke="rgba(226, 239, 233, 1)" stroke-width="1.5"></path><path d="M1582.3 -54.9L1435.54 89.33" stroke="rgba(226, 239, 233, 1)" stroke-width="1.5"></path><path d="M1582.3 -54.9L1585.88 195.1" stroke="rgba(226, 239, 233, 1)" stroke-width="1.5"></path><path d="M1608.99 95.33L1608.99 95.33" stroke="rgba(226, 239, 233, 1)" stroke-width="1.5"></path><path d="M1608.99 95.33L1585.88 195.1" stroke="rgba(226, 239, 233, 1)" stroke-width="1.5"></path><path d="M1585.88 195.1L1585.88 195.1" stroke="rgba(226, 239, 233, 1)" stroke-width="1.5"></path><path d="M1585.88 195.1L1584.15 372.95" stroke="rgba(226, 239, 233, 1)" stroke-width="1.5"></path><path d="M1585.88 195.1L1435.54 89.33" stroke="rgba(226, 239, 233, 1)" stroke-width="1.5"></path><path d="M1584.15 372.95L1584.15 372.95" stroke="rgba(226, 239, 233, 1)" stroke-width="1.5"></path><path d="M1584.15 372.95L1540.19 512.79" stroke="rgba(226, 239, 233, 1)" stroke-width="1.5"></path><path d="M1584.15 372.95L1445.49 537.76" stroke="rgba(226, 239, 233, 1)" stroke-width="1.5"></path><path d="M1540.19 512.79L1540.19 512.79" stroke="rgba(226, 239, 233, 1)" stroke-width="1.5"></path><path d="M1540.19 512.79L1584.03 682.54" stroke="rgba(226, 239, 233, 1)" stroke-width="1.5"></path><path d="M1584.03 682.54L1584.03 682.54" stroke="rgba(226, 239, 233, 1)" stroke-width="1.5"></path><path d="M1584.03 682.54L1445.49 537.76" stroke="rgba(226, 239, 233, 1)" stroke-width="1.5"></path><path d="M1584.03 682.54L1584.15 372.95" stroke="rgba(226, 239, 233, 1)" stroke-width="1.5"></path><circle r="5" cx="-57.57" cy="385.82" fill="rgba(226, 239, 233, 1)"></circle><circle r="5" cx="-44.01" cy="511.41" fill="rgba(226, 239, 233, 1)"></circle><circle r="5" cx="-100.47" cy="711.03" fill="rgba(226, 239, 233, 1)"></circle><circle r="5" cx="60.23" cy="376.71" fill="rgba(226, 239, 233, 1)"></circle><circle r="5" cx="49.61" cy="510.85" fill="rgba(226, 239, 233, 1)"></circle><circle r="5" cx="42.3" cy="670.74" fill="rgba(226, 239, 233, 1)"></circle><circle r="5" cx="205.63" cy="516.53" fill="rgba(226, 239, 233, 1)"></circle><circle r="5" cx="243.55" cy="707.7" fill="rgba(226, 239, 233, 1)"></circle><circle r="5" cx="369.49" cy="409.26" fill="rgba(226, 239, 233, 1)"></circle><circle r="5" cx="345.99" cy="551.61" fill="rgba(226, 239, 233, 1)"></circle><circle r="5" cx="402.92" cy="647.53" fill="rgba(226, 239, 233, 1)"></circle><circle r="5" cx="559.77" cy="391.35" fill="rgba(226, 239, 233, 1)"></circle><circle r="5" cx="502.3" cy="520.38" fill="rgba(226, 239, 233, 1)"></circle><circle r="5" cx="533.55" cy="641.99" fill="rgba(226, 239, 233, 1)"></circle><circle r="5" cx="708.51" cy="215.44" fill="rgba(226, 239, 233, 1)"></circle><circle r="5" cx="659.38" cy="528.93" fill="rgba(226, 239, 233, 1)"></circle><circle r="5" cx="660.51" cy="676.38" fill="rgba(226, 239, 233, 1)"></circle><circle r="5" cx="858.21" cy="232.73" fill="rgba(226, 239, 233, 1)"></circle><circle r="5" cx="832.8" cy="387.95" fill="rgba(226, 239, 233, 1)"></circle><circle r="5" cx="806.71" cy="491.98" fill="rgba(226, 239, 233, 1)"></circle><circle r="5" cx="794.48" cy="707.2" fill="rgba(226, 239, 233, 1)"></circle><circle r="5" cx="1009.61" cy="-46.33" fill="rgba(226, 239, 233, 1)"></circle><circle r="5" cx="1006.23" cy="42.98" fill="rgba(226, 239, 233, 1)"></circle><circle r="5" cx="1010.67" cy="215.29" fill="rgba(226, 239, 233, 1)"></circle><circle r="5" cx="987.55" cy="379.24" fill="rgba(226, 239, 233, 1)"></circle><circle r="5" cx="943.75" cy="533.25" fill="rgba(226, 239, 233, 1)"></circle><circle r="5" cx="979.38" cy="640.52" fill="rgba(226, 239, 233, 1)"></circle><circle r="5" cx="1093.49" cy="-78.06" fill="rgba(226, 239, 233, 1)"></circle><circle r="5" cx="1119.37" cy="101.32" fill="rgba(226, 239, 233, 1)"></circle><circle r="5" cx="1112.68" cy="197.68" fill="rgba(226, 239, 233, 1)"></circle><circle r="5" cx="1158.82" cy="359.86" fill="rgba(226, 239, 233, 1)"></circle><circle r="5" cx="1153.92" cy="489.11" fill="rgba(226, 239, 233, 1)"></circle><circle r="5" cx="1103.81" cy="637.86" fill="rgba(226, 239, 233, 1)"></circle><circle r="5" cx="1295.32" cy="-43.76" fill="rgba(226, 239, 233, 1)"></circle><circle r="5" cx="1309.28" cy="107.83" fill="rgba(226, 239, 233, 1)"></circle><circle r="5" cx="1285.81" cy="225.72" fill="rgba(226, 239, 233, 1)"></circle><circle r="5" cx="1289.41" cy="340.74" fill="rgba(226, 239, 233, 1)"></circle><circle r="5" cx="1260.69" cy="515.39" fill="rgba(226, 239, 233, 1)"></circle><circle r="5" cx="1271.26" cy="661.02" fill="rgba(226, 239, 233, 1)"></circle><circle r="5" cx="1427.38" cy="-56.83" fill="rgba(226, 239, 233, 1)"></circle><circle r="5" cx="1435.54" cy="89.33" fill="rgba(226, 239, 233, 1)"></circle><circle r="5" cx="1446.14" cy="198.67" fill="rgba(226, 239, 233, 1)"></circle><circle r="5" cx="1438.17" cy="395.53" fill="rgba(226, 239, 233, 1)"></circle><circle r="5" cx="1445.49" cy="537.76" fill="rgba(226, 239, 233, 1)"></circle><circle r="5" cx="1413.29" cy="646.69" fill="rgba(226, 239, 233, 1)"></circle><circle r="5" cx="1582.3" cy="-54.9" fill="rgba(226, 239, 233, 1)"></circle><circle r="5" cx="1608.99" cy="95.33" fill="rgba(226, 239, 233, 1)"></circle><circle r="5" cx="1585.88" cy="195.1" fill="rgba(226, 239, 233, 1)"></circle><circle r="5" cx="1584.15" cy="372.95" fill="rgba(226, 239, 233, 1)"></circle><circle r="5" cx="1540.19" cy="512.79" fill="rgba(226, 239, 233, 1)"></circle><circle r="5" cx="1584.03" cy="682.54" fill="rgba(226, 239, 233, 1)"></circle><path d="M-56.61 678.62L-56.61 678.62" stroke="hsl(152.79999999999995, 47.8%, 95.8%)" stroke-width="1.5"></path><path d="M-56.61 678.62L96.85 690.42" stroke="hsl(152.79999999999995, 47.8%, 95.8%)" stroke-width="1.5"></path><path d="M-56.61 678.62L-78.15 503.19" stroke="hsl(152.79999999999995, 47.8%, 95.8%)" stroke-width="1.5"></path><path d="M-56.61 678.62L92.9 503.18" stroke="hsl(152.79999999999995, 47.8%, 95.8%)" stroke-width="1.5"></path><path d="M259.55 672.07L259.55 672.07" stroke="hsl(152.79999999999995, 47.8%, 95.8%)" stroke-width="1.5"></path><path d="M259.55 672.07L363.77 668.23" stroke="hsl(152.79999999999995, 47.8%, 95.8%)" stroke-width="1.5"></path><path d="M259.55 672.07L96.85 690.42" stroke="hsl(152.79999999999995, 47.8%, 95.8%)" stroke-width="1.5"></path><path d="M259.55 672.07L385.46 544.18" stroke="hsl(152.79999999999995, 47.8%, 95.8%)" stroke-width="1.5"></path><path d="M259.55 672.07L194.02 502.24" stroke="hsl(152.79999999999995, 47.8%, 95.8%)" stroke-width="1.5"></path><path d="M259.55 672.07L92.9 503.18" stroke="hsl(152.79999999999995, 47.8%, 95.8%)" stroke-width="1.5"></path><path d="M527.74 550.17L527.74 550.17" stroke="hsl(152.79999999999995, 47.8%, 95.8%)" stroke-width="1.5"></path><path d="M527.74 550.17L499.38 652.77" stroke="hsl(152.79999999999995, 47.8%, 95.8%)" stroke-width="1.5"></path><path d="M527.74 550.17L385.46 544.18" stroke="hsl(152.79999999999995, 47.8%, 95.8%)" stroke-width="1.5"></path><path d="M527.74 550.17L658.52 671.48" stroke="hsl(152.79999999999995, 47.8%, 95.8%)" stroke-width="1.5"></path><path d="M527.74 550.17L701.87 493.04" stroke="hsl(152.79999999999995, 47.8%, 95.8%)" stroke-width="1.5"></path><path d="M527.74 550.17L363.77 668.23" stroke="hsl(152.79999999999995, 47.8%, 95.8%)" stroke-width="1.5"></path><path d="M527.74 550.17L645.8 382.63" stroke="hsl(152.79999999999995, 47.8%, 95.8%)" stroke-width="1.5"></path><path d="M658.52 671.48L658.52 671.48" stroke="hsl(152.79999999999995, 47.8%, 95.8%)" stroke-width="1.5"></path><path d="M658.52 671.48L499.38 652.77" stroke="hsl(152.79999999999995, 47.8%, 95.8%)" stroke-width="1.5"></path><path d="M658.52 671.48L701.87 493.04" stroke="hsl(152.79999999999995, 47.8%, 95.8%)" stroke-width="1.5"></path><path d="M658.52 671.48L844.32 640.49" stroke="hsl(152.79999999999995, 47.8%, 95.8%)" stroke-width="1.5"></path><path d="M658.52 671.48L836.45 550.93" stroke="hsl(152.79999999999995, 47.8%, 95.8%)" stroke-width="1.5"></path><path d="M836.45 550.93L836.45 550.93" stroke="hsl(152.79999999999995, 47.8%, 95.8%)" stroke-width="1.5"></path><path d="M836.45 550.93L844.32 640.49" stroke="hsl(152.79999999999995, 47.8%, 95.8%)" stroke-width="1.5"></path><path d="M836.45 550.93L937.67 643.35" stroke="hsl(152.79999999999995, 47.8%, 95.8%)" stroke-width="1.5"></path><path d="M836.45 550.93L701.87 493.04" stroke="hsl(152.79999999999995, 47.8%, 95.8%)" stroke-width="1.5"></path><path d="M836.45 550.93L995.53 498.38" stroke="hsl(152.79999999999995, 47.8%, 95.8%)" stroke-width="1.5"></path><path d="M1007.12 244.61L1007.12 244.61" stroke="hsl(152.79999999999995, 47.8%, 95.8%)" stroke-width="1.5"></path><path d="M1007.12 244.61L1130.13 204.05" stroke="hsl(152.79999999999995, 47.8%, 95.8%)" stroke-width="1.5"></path><path d="M1007.12 244.61L944.35 393.95" stroke="hsl(152.79999999999995, 47.8%, 95.8%)" stroke-width="1.5"></path><path d="M1007.12 244.61L861.62 344.16" stroke="hsl(152.79999999999995, 47.8%, 95.8%)" stroke-width="1.5"></path><path d="M1007.12 244.61L1159.04 380.94" stroke="hsl(152.79999999999995, 47.8%, 95.8%)" stroke-width="1.5"></path><path d="M1425.64 188.8L1425.64 188.8" stroke="hsl(152.79999999999995, 47.8%, 95.8%)" stroke-width="1.5"></path><path d="M1425.64 188.8L1286.98 214.2" stroke="hsl(152.79999999999995, 47.8%, 95.8%)" stroke-width="1.5"></path><path d="M1425.64 188.8L1416.6 44.39" stroke="hsl(152.79999999999995, 47.8%, 95.8%)" stroke-width="1.5"></path><path d="M1425.64 188.8L1607.46 109.2" stroke="hsl(152.79999999999995, 47.8%, 95.8%)" stroke-width="1.5"></path><path d="M1575.86 693.81L1575.86 693.81" stroke="hsl(152.79999999999995, 47.8%, 95.8%)" stroke-width="1.5"></path><path d="M1575.86 693.81L1459.85 663.86" stroke="hsl(152.79999999999995, 47.8%, 95.8%)" stroke-width="1.5"></path><path d="M1575.86 693.81L1594.71 506.4" stroke="hsl(152.79999999999995, 47.8%, 95.8%)" stroke-width="1.5"></path><path d="M-78.15 503.19L-78.15 503.19" stroke="hsl(152.79999999999995, 47.8%, 95.8%)" stroke-width="1.5"></path><path d="M-78.15 503.19L92.9 503.18" stroke="hsl(152.79999999999995, 47.8%, 95.8%)" stroke-width="1.5"></path><path d="M92.9 503.18L92.9 503.18" stroke="hsl(152.79999999999995, 47.8%, 95.8%)" stroke-width="1.5"></path><path d="M92.9 503.18L194.02 502.24" stroke="hsl(152.79999999999995, 47.8%, 95.8%)" stroke-width="1.5"></path><path d="M96.85 690.42L96.85 690.42" stroke="hsl(152.79999999999995, 47.8%, 95.8%)" stroke-width="1.5"></path><path d="M194.02 502.24L194.02 502.24" stroke="hsl(152.79999999999995, 47.8%, 95.8%)" stroke-width="1.5"></path><path d="M385.46 544.18L385.46 544.18" stroke="hsl(152.79999999999995, 47.8%, 95.8%)" stroke-width="1.5"></path><path d="M385.46 544.18L363.77 668.23" stroke="hsl(152.79999999999995, 47.8%, 95.8%)" stroke-width="1.5"></path><path d="M385.46 544.18L499.38 652.77" stroke="hsl(152.79999999999995, 47.8%, 95.8%)" stroke-width="1.5"></path><path d="M363.77 668.23L363.77 668.23" stroke="hsl(152.79999999999995, 47.8%, 95.8%)" stroke-width="1.5"></path><path d="M363.77 668.23L499.38 652.77" stroke="hsl(152.79999999999995, 47.8%, 95.8%)" stroke-width="1.5"></path><path d="M499.38 652.77L499.38 652.77" stroke="hsl(152.79999999999995, 47.8%, 95.8%)" stroke-width="1.5"></path><path d="M645.8 382.63L645.8 382.63" stroke="hsl(152.79999999999995, 47.8%, 95.8%)" stroke-width="1.5"></path><path d="M645.8 382.63L701.87 493.04" stroke="hsl(152.79999999999995, 47.8%, 95.8%)" stroke-width="1.5"></path><path d="M701.87 493.04L701.87 493.04" stroke="hsl(152.79999999999995, 47.8%, 95.8%)" stroke-width="1.5"></path><path d="M701.87 493.04L844.32 640.49" stroke="hsl(152.79999999999995, 47.8%, 95.8%)" stroke-width="1.5"></path><path d="M861.62 344.16L861.62 344.16" stroke="hsl(152.79999999999995, 47.8%, 95.8%)" stroke-width="1.5"></path><path d="M861.62 344.16L944.35 393.95" stroke="hsl(152.79999999999995, 47.8%, 95.8%)" stroke-width="1.5"></path><path d="M861.62 344.16L995.53 498.38" stroke="hsl(152.79999999999995, 47.8%, 95.8%)" stroke-width="1.5"></path><path d="M861.62 344.16L836.45 550.93" stroke="hsl(152.79999999999995, 47.8%, 95.8%)" stroke-width="1.5"></path><path d="M844.32 640.49L844.32 640.49" stroke="hsl(152.79999999999995, 47.8%, 95.8%)" stroke-width="1.5"></path><path d="M844.32 640.49L937.67 643.35" stroke="hsl(152.79999999999995, 47.8%, 95.8%)" stroke-width="1.5"></path><path d="M944.35 393.95L944.35 393.95" stroke="hsl(152.79999999999995, 47.8%, 95.8%)" stroke-width="1.5"></path><path d="M944.35 393.95L995.53 498.38" stroke="hsl(152.79999999999995, 47.8%, 95.8%)" stroke-width="1.5"></path><path d="M995.53 498.38L995.53 498.38" stroke="hsl(152.79999999999995, 47.8%, 95.8%)" stroke-width="1.5"></path><path d="M995.53 498.38L1125.48 503.08" stroke="hsl(152.79999999999995, 47.8%, 95.8%)" stroke-width="1.5"></path><path d="M995.53 498.38L937.67 643.35" stroke="hsl(152.79999999999995, 47.8%, 95.8%)" stroke-width="1.5"></path><path d="M937.67 643.35L937.67 643.35" stroke="hsl(152.79999999999995, 47.8%, 95.8%)" stroke-width="1.5"></path><path d="M937.67 643.35L1124.1 685.51" stroke="hsl(152.79999999999995, 47.8%, 95.8%)" stroke-width="1.5"></path><path d="M937.67 643.35L1125.48 503.08" stroke="hsl(152.79999999999995, 47.8%, 95.8%)" stroke-width="1.5"></path><path d="M1130.13 204.05L1130.13 204.05" stroke="hsl(152.79999999999995, 47.8%, 95.8%)" stroke-width="1.5"></path><path d="M1130.13 204.05L1286.98 214.2" stroke="hsl(152.79999999999995, 47.8%, 95.8%)" stroke-width="1.5"></path><path d="M1130.13 204.05L1159.04 380.94" stroke="hsl(152.79999999999995, 47.8%, 95.8%)" stroke-width="1.5"></path><path d="M1130.13 204.05L1258.52 76.85" stroke="hsl(152.79999999999995, 47.8%, 95.8%)" stroke-width="1.5"></path><path d="M1130.13 204.05L1284.88 390.11" stroke="hsl(152.79999999999995, 47.8%, 95.8%)" stroke-width="1.5"></path><path d="M1159.04 380.94L1159.04 380.94" stroke="hsl(152.79999999999995, 47.8%, 95.8%)" stroke-width="1.5"></path><path d="M1159.04 380.94L1284.88 390.11" stroke="hsl(152.79999999999995, 47.8%, 95.8%)" stroke-width="1.5"></path><path d="M1159.04 380.94L1125.48 503.08" stroke="hsl(152.79999999999995, 47.8%, 95.8%)" stroke-width="1.5"></path><path d="M1159.04 380.94L1249.45 487.81" stroke="hsl(152.79999999999995, 47.8%, 95.8%)" stroke-width="1.5"></path><path d="M1159.04 380.94L995.53 498.38" stroke="hsl(152.79999999999995, 47.8%, 95.8%)" stroke-width="1.5"></path><path d="M1125.48 503.08L1125.48 503.08" stroke="hsl(152.79999999999995, 47.8%, 95.8%)" stroke-width="1.5"></path><path d="M1125.48 503.08L1249.45 487.81" stroke="hsl(152.79999999999995, 47.8%, 95.8%)" stroke-width="1.5"></path><path d="M1124.1 685.51L1124.1 685.51" stroke="hsl(152.79999999999995, 47.8%, 95.8%)" stroke-width="1.5"></path><path d="M1124.1 685.51L1125.48 503.08" stroke="hsl(152.79999999999995, 47.8%, 95.8%)" stroke-width="1.5"></path><path d="M1254.14 -92.88L1254.14 -92.88" stroke="hsl(152.79999999999995, 47.8%, 95.8%)" stroke-width="1.5"></path><path d="M1254.14 -92.88L1258.52 76.85" stroke="hsl(152.79999999999995, 47.8%, 95.8%)" stroke-width="1.5"></path><path d="M1254.14 -92.88L1447.84 -51.63" stroke="hsl(152.79999999999995, 47.8%, 95.8%)" stroke-width="1.5"></path><path d="M1258.52 76.85L1258.52 76.85" stroke="hsl(152.79999999999995, 47.8%, 95.8%)" stroke-width="1.5"></path><path d="M1258.52 76.85L1286.98 214.2" stroke="hsl(152.79999999999995, 47.8%, 95.8%)" stroke-width="1.5"></path><path d="M1258.52 76.85L1416.6 44.39" stroke="hsl(152.79999999999995, 47.8%, 95.8%)" stroke-width="1.5"></path><path d="M1286.98 214.2L1286.98 214.2" stroke="hsl(152.79999999999995, 47.8%, 95.8%)" stroke-width="1.5"></path><path d="M1284.88 390.11L1284.88 390.11" stroke="hsl(152.79999999999995, 47.8%, 95.8%)" stroke-width="1.5"></path><path d="M1284.88 390.11L1249.45 487.81" stroke="hsl(152.79999999999995, 47.8%, 95.8%)" stroke-width="1.5"></path><path d="M1284.88 390.11L1404.97 490.1" stroke="hsl(152.79999999999995, 47.8%, 95.8%)" stroke-width="1.5"></path><path d="M1249.45 487.81L1249.45 487.81" stroke="hsl(152.79999999999995, 47.8%, 95.8%)" stroke-width="1.5"></path><path d="M1249.45 487.81L1404.97 490.1" stroke="hsl(152.79999999999995, 47.8%, 95.8%)" stroke-width="1.5"></path><path d="M1249.45 487.81L1442.14 394.24" stroke="hsl(152.79999999999995, 47.8%, 95.8%)" stroke-width="1.5"></path><path d="M1249.45 487.81L1124.1 685.51" stroke="hsl(152.79999999999995, 47.8%, 95.8%)" stroke-width="1.5"></path><path d="M1447.84 -51.63L1447.84 -51.63" stroke="hsl(152.79999999999995, 47.8%, 95.8%)" stroke-width="1.5"></path><path d="M1447.84 -51.63L1416.6 44.39" stroke="hsl(152.79999999999995, 47.8%, 95.8%)" stroke-width="1.5"></path><path d="M1447.84 -51.63L1562.86 -101.78" stroke="hsl(152.79999999999995, 47.8%, 95.8%)" stroke-width="1.5"></path><path d="M1447.84 -51.63L1607.46 109.2" stroke="hsl(152.79999999999995, 47.8%, 95.8%)" stroke-width="1.5"></path><path d="M1447.84 -51.63L1258.52 76.85" stroke="hsl(152.79999999999995, 47.8%, 95.8%)" stroke-width="1.5"></path><path d="M1447.84 -51.63L1425.64 188.8" stroke="hsl(152.79999999999995, 47.8%, 95.8%)" stroke-width="1.5"></path><path d="M1416.6 44.39L1416.6 44.39" stroke="hsl(152.79999999999995, 47.8%, 95.8%)" stroke-width="1.5"></path><path d="M1442.14 394.24L1442.14 394.24" stroke="hsl(152.79999999999995, 47.8%, 95.8%)" stroke-width="1.5"></path><path d="M1442.14 394.24L1404.97 490.1" stroke="hsl(152.79999999999995, 47.8%, 95.8%)" stroke-width="1.5"></path><path d="M1442.14 394.24L1284.88 390.11" stroke="hsl(152.79999999999995, 47.8%, 95.8%)" stroke-width="1.5"></path><path d="M1442.14 394.24L1602.32 352.52" stroke="hsl(152.79999999999995, 47.8%, 95.8%)" stroke-width="1.5"></path><path d="M1442.14 394.24L1594.71 506.4" stroke="hsl(152.79999999999995, 47.8%, 95.8%)" stroke-width="1.5"></path><path d="M1442.14 394.24L1425.64 188.8" stroke="hsl(152.79999999999995, 47.8%, 95.8%)" stroke-width="1.5"></path><path d="M1404.97 490.1L1404.97 490.1" stroke="hsl(152.79999999999995, 47.8%, 95.8%)" stroke-width="1.5"></path><path d="M1459.85 663.86L1459.85 663.86" stroke="hsl(152.79999999999995, 47.8%, 95.8%)" stroke-width="1.5"></path><path d="M1459.85 663.86L1404.97 490.1" stroke="hsl(152.79999999999995, 47.8%, 95.8%)" stroke-width="1.5"></path><path d="M1562.86 -101.78L1562.86 -101.78" stroke="hsl(152.79999999999995, 47.8%, 95.8%)" stroke-width="1.5"></path><path d="M1562.86 -101.78L1416.6 44.39" stroke="hsl(152.79999999999995, 47.8%, 95.8%)" stroke-width="1.5"></path><path d="M1607.46 109.2L1607.46 109.2" stroke="hsl(152.79999999999995, 47.8%, 95.8%)" stroke-width="1.5"></path><path d="M1607.46 109.2L1416.6 44.39" stroke="hsl(152.79999999999995, 47.8%, 95.8%)" stroke-width="1.5"></path><path d="M1607.46 109.2L1562.86 -101.78" stroke="hsl(152.79999999999995, 47.8%, 95.8%)" stroke-width="1.5"></path><path d="M1607.46 109.2L1602.32 352.52" stroke="hsl(152.79999999999995, 47.8%, 95.8%)" stroke-width="1.5"></path><path d="M1607.46 109.2L1442.14 394.24" stroke="hsl(152.79999999999995, 47.8%, 95.8%)" stroke-width="1.5"></path><path d="M1602.32 352.52L1602.32 352.52" stroke="hsl(152.79999999999995, 47.8%, 95.8%)" stroke-width="1.5"></path><path d="M1602.32 352.52L1594.71 506.4" stroke="hsl(152.79999999999995, 47.8%, 95.8%)" stroke-width="1.5"></path><path d="M1594.71 506.4L1594.71 506.4" stroke="hsl(152.79999999999995, 47.8%, 95.8%)" stroke-width="1.5"></path><path d="M1594.71 506.4L1404.97 490.1" stroke="hsl(152.79999999999995, 47.8%, 95.8%)" stroke-width="1.5"></path><path d="M1594.71 506.4L1459.85 663.86" stroke="hsl(152.79999999999995, 47.8%, 95.8%)" stroke-width="1.5"></path><path d="M1594.71 506.4L1284.88 390.11" stroke="hsl(152.79999999999995, 47.8%, 95.8%)" stroke-width="1.5"></path><circle r="25" cx="-56.61" cy="678.62" fill="url(&quot;#SvgjsRadialGradient2828&quot;)"></circle><circle r="25" cx="259.55" cy="672.07" fill="url(&quot;#SvgjsRadialGradient2828&quot;)"></circle><circle r="25" cx="527.74" cy="550.17" fill="url(&quot;#SvgjsRadialGradient2828&quot;)"></circle><circle r="25" cx="658.52" cy="671.48" fill="url(&quot;#SvgjsRadialGradient2828&quot;)"></circle><circle r="25" cx="836.45" cy="550.93" fill="url(&quot;#SvgjsRadialGradient2828&quot;)"></circle><circle r="25" cx="1007.12" cy="244.61" fill="url(&quot;#SvgjsRadialGradient2828&quot;)"></circle><circle r="25" cx="1425.64" cy="188.8" fill="url(&quot;#SvgjsRadialGradient2828&quot;)"></circle><circle r="25" cx="1575.86" cy="693.81" fill="url(&quot;#SvgjsRadialGradient2828&quot;)"></circle><circle r="5" cx="-78.15" cy="503.19" fill="#ceeedf"></circle><circle r="5" cx="92.9" cy="503.18" fill="#ceeedf"></circle><circle r="5" cx="96.85" cy="690.42" fill="#ceeedf"></circle><circle r="5" cx="194.02" cy="502.24" fill="#ceeedf"></circle><circle r="5" cx="385.46" cy="544.18" fill="#ceeedf"></circle><circle r="5" cx="363.77" cy="668.23" fill="#ceeedf"></circle><circle r="5" cx="499.38" cy="652.77" fill="#ceeedf"></circle><circle r="5" cx="645.8" cy="382.63" fill="#ceeedf"></circle><circle r="5" cx="701.87" cy="493.04" fill="#ceeedf"></circle><circle r="5" cx="861.62" cy="344.16" fill="#ceeedf"></circle><circle r="5" cx="844.32" cy="640.49" fill="#ceeedf"></circle><circle r="5" cx="944.35" cy="393.95" fill="#ceeedf"></circle><circle r="5" cx="995.53" cy="498.38" fill="#ceeedf"></circle><circle r="5" cx="937.67" cy="643.35" fill="#ceeedf"></circle><circle r="5" cx="1130.13" cy="204.05" fill="#ceeedf"></circle><circle r="5" cx="1159.04" cy="380.94" fill="#ceeedf"></circle><circle r="5" cx="1125.48" cy="503.08" fill="#ceeedf"></circle><circle r="5" cx="1124.1" cy="685.51" fill="#ceeedf"></circle><circle r="5" cx="1254.14" cy="-92.88" fill="#ceeedf"></circle><circle r="5" cx="1258.52" cy="76.85" fill="#ceeedf"></circle><circle r="5" cx="1286.98" cy="214.2" fill="#ceeedf"></circle><circle r="5" cx="1284.88" cy="390.11" fill="#ceeedf"></circle><circle r="5" cx="1249.45" cy="487.81" fill="#ceeedf"></circle><circle r="5" cx="1447.84" cy="-51.63" fill="#ceeedf"></circle><circle r="5" cx="1416.6" cy="44.39" fill="#ceeedf"></circle><circle r="5" cx="1442.14" cy="394.24" fill="#ceeedf"></circle><circle r="5" cx="1404.97" cy="490.1" fill="#ceeedf"></circle><circle r="5" cx="1459.85" cy="663.86" fill="#ceeedf"></circle><circle r="5" cx="1562.86" cy="-101.78" fill="#ceeedf"></circle><circle r="5" cx="1607.46" cy="109.2" fill="#ceeedf"></circle><circle r="5" cx="1602.32" cy="352.52" fill="#ceeedf"></circle><circle r="5" cx="1594.71" cy="506.4" fill="#ceeedf"></circle></g><defs><mask id="SvgjsMask2826"><rect width="1440" height="560" fill="#ffffff"></rect></mask><linearGradient x1="15.28%" y1="-39.29%" x2="84.72%" y2="139.29%" gradientUnits="userSpaceOnUse" id="SvgjsLinearGradient2827"><stop stop-color="rgba(160, 190, 180, 1)" offset="0"></stop><stop stop-color="rgba(121, 184, 127, 1)" offset="1"></stop></linearGradient><radialGradient id="SvgjsRadialGradient2828"><stop stop-color="#ffffff" offset="0.1"></stop><stop stop-color="rgba(156, 220, 191, 1)" offset="0.2"></stop><stop stop-color="rgba(156, 220, 191, 0)" offset="1"></stop></radialGradient></defs></svg>